<?xml version="1.0" encoding="UTF-8"?>
<svg width="606px" height="136px" viewBox="0 0 606 136" version="1.1" xmlns="http://www.w3.org/2000/svg" xmlns:xlink="http://www.w3.org/1999/xlink">
    <!-- Generator: Sketch 48.2 (47327) - http://www.bohemiancoding.com/sketch -->
    <title>Artboard</title>
    <desc>Created with Sketch.</desc>
    <defs>
        <polygon id="path-1" points="0.06 0.539 11.087 0.539 11.087 22.876 0.06 22.876"></polygon>
        <polygon id="path-3" points="0.453 0.141 56.445 0.141 56.445 13.94 0.453 13.94"></polygon>
        <polygon id="path-5" points="0.399 0.141 43.512 0.141 43.512 13.94 0.399 13.94"></polygon>
    </defs>
    <g id="Page-1" stroke="none" stroke-width="1" fill="none" fill-rule="evenodd">
        <g id="Artboard">
            <g id="CfA_Logo_Horizontal_REV" transform="translate(38.000000, 24.000000)">
                <g id="Group-3" transform="translate(0.000000, 18.000000)">
                    <mask id="mask-2" fill="white">
                        <use xlink:href="#path-1"></use>
                    </mask>
                    <g id="Clip-2"></g>
                    <path d="M11.087,0.999 L11.021,2.741 C9.936,2.545 8.324,2.249 6.744,2.249 C3.29,2.249 1.908,3.564 1.908,7.019 L1.908,16.396 C1.908,19.652 3.29,21.099 6.777,21.099 C8.39,21.099 9.936,20.835 11.021,20.607 L11.087,22.381 C9.638,22.645 8.224,22.876 6.744,22.876 C1.81,22.876 0,20.671 0,16.264 L0,7.184 C0,2.609 1.81,0.539 6.744,0.539 C8.224,0.539 9.638,0.767 11.087,0.999" id="Fill-1" fill="#FFFFFE" mask="url(#mask-2)"></path>
                </g>
                <polyline id="Fill-4" fill="#FFFFFE" points="33.139 20.677 24.323 20.677 24.323 28.671 32.482 28.671 32.482 30.381 24.323 30.381 24.323 38.739 33.139 38.739 33.139 40.481 22.414 40.481 22.414 18.932 33.139 18.932 33.139 20.677"></polyline>
                <polyline id="Fill-5" fill="#FFFFFE" points="46.672 21.236 46.672 40.481 44.796 40.481 44.796 18.932 47.79 18.932 56.673 38.08 56.673 18.932 58.547 18.932 58.547 40.481 55.686 40.481 46.672 21.236"></polyline>
                <polyline id="Fill-6" fill="#FFFFFE" points="83.859 20.677 77.379 20.677 77.379 40.481 75.471 40.481 75.471 20.677 68.989 20.677 68.989 18.932 83.859 18.932 83.859 20.677"></polyline>
                <polyline id="Fill-7" fill="#FFFFFE" points="104.992 20.677 96.176 20.677 96.176 28.671 104.335 28.671 104.335 30.381 96.176 30.381 96.176 38.739 104.992 38.739 104.992 40.481 94.267 40.481 94.267 18.932 104.992 18.932 104.992 20.677"></polyline>
                <path d="M118.558,20.314 L118.558,29.427 C120.004,29.526 121.223,29.59 122.176,29.59 C125.927,29.59 127.539,28.012 127.539,25.052 L127.539,24.46 C127.539,21.632 125.893,20.217 122.078,20.217 C121.353,20.217 119.479,20.282 118.558,20.314 Z M129.447,24.329 L129.447,25.119 C129.447,27.816 128.065,29.921 125.4,30.709 L130.959,40.481 L128.822,40.481 L123.524,31.104 C122.406,31.236 120.564,31.236 118.558,31.072 L118.558,40.481 L116.649,40.481 L116.649,18.704 C118.59,18.636 120.334,18.539 122.144,18.539 C127.242,18.539 129.447,20.741 129.447,24.329 Z" id="Fill-8" fill="#FFFFFE"></path>
                <polyline id="Fill-9" fill="#FFFFFE" points="165.422 20.677 156.607 20.677 156.607 28.671 163.285 28.671 163.285 30.381 156.607 30.381 156.607 40.481 154.697 40.481 154.697 18.932 165.422 18.932 165.422 20.677"></polyline>
                <path d="M177.079,25.283 L177.079,34.1 C177.079,37.488 178.757,39.166 182.113,39.166 C185.469,39.166 187.147,37.488 187.147,34.1 L187.147,25.315 C187.147,21.959 185.501,20.249 182.113,20.249 C178.725,20.249 177.079,21.927 177.079,25.283 Z M189.055,25.611 L189.055,33.801 C189.055,38.375 186.949,40.876 182.113,40.876 C177.245,40.876 175.171,38.375 175.171,33.801 L175.171,25.611 C175.171,21.169 177.113,18.539 182.113,18.539 C187.081,18.539 189.055,21.169 189.055,25.611 Z" id="Fill-10" fill="#FFFFFE"></path>
                <path d="M202.786,20.314 L202.786,29.427 C204.233,29.526 205.451,29.59 206.404,29.59 C210.155,29.59 211.768,28.012 211.768,25.052 L211.768,24.46 C211.768,21.632 210.122,20.217 206.306,20.217 C205.581,20.217 203.708,20.282 202.786,20.314 Z M213.675,24.329 L213.675,25.119 C213.675,27.816 212.293,29.921 209.628,30.709 L215.188,40.481 L213.05,40.481 L207.753,31.104 C206.634,31.236 204.792,31.236 202.786,31.072 L202.786,40.481 L200.877,40.481 L200.877,18.704 C202.818,18.636 204.563,18.539 206.372,18.539 C211.47,18.539 213.675,20.741 213.675,24.329 Z" id="Fill-11" fill="#FFFFFE"></path>
                <path d="M375.421,21.959 C374.435,21.959 373.908,21.992 373.348,22.027 L373.348,28.571 C374.369,28.703 374.993,28.771 375.552,28.771 C378.119,28.771 379.369,27.617 379.369,25.415 L379.369,24.92 C379.369,23.014 378.216,21.959 375.421,21.959" id="Fill-12" fill="#FFFFFE"></path>
                <path d="M351.886,22.091 C349.55,22.091 348.4,23.274 348.4,25.512 L348.4,33.869 C348.4,36.138 349.585,37.324 351.886,37.324 C354.189,37.324 355.374,36.138 355.374,33.869 L355.374,25.547 C355.374,23.309 354.189,22.091 351.886,22.091" id="Fill-13" fill="#FFFFFE"></path>
                <path d="M327.036,21.992 C326.51,21.992 325.587,22.027 324.93,22.059 L324.93,28.343 C325.884,28.44 326.411,28.472 327.068,28.472 C329.766,28.472 330.884,27.289 330.884,25.348 L330.884,24.82 C330.884,22.946 329.766,21.992 327.036,21.992" id="Fill-14" fill="#FFFFFE"></path>
                <polyline id="Fill-15" fill="#FFFFFE" points="256.896 32.619 262.192 32.619 259.561 22.223 256.896 32.619"></polyline>
                <path d="M510.304,34.756 C510.304,38.703 508.263,40.876 502.803,40.876 C501.619,40.876 499.645,40.58 497.736,40.185 L497.77,36.534 C499.545,36.961 501.519,37.257 502.704,37.257 C505.468,37.257 506.389,36.402 506.389,34.888 L506.389,34.033 C506.389,32.882 505.928,32.29 504.645,31.863 L501.454,30.809 C498.263,29.758 497.176,28.343 497.176,24.952 L497.176,24.624 C497.176,20.709 499.152,18.539 503.856,18.539 C505.17,18.539 507.113,18.767 508.856,19.063 L508.791,22.65 C507.144,22.355 505.17,22.091 503.955,22.091 C501.882,22.091 501.126,22.914 501.126,24.392 L501.126,25.084 C501.126,26.27 501.487,26.729 503.197,27.289 L506.093,28.244 C509.152,29.263 510.304,30.809 510.304,34.132 L510.304,34.756 Z M483.71,37.257 C485.224,37.257 486.902,36.929 488.184,36.666 L488.251,40.285 C486.573,40.58 484.829,40.876 483.316,40.876 C477.92,40.876 476.045,38.571 476.045,34 L476.045,25.415 C476.045,20.777 477.987,18.539 483.316,18.539 C484.762,18.539 486.342,18.803 488.251,19.099 L488.184,22.619 C486.902,22.387 485.224,22.091 483.71,22.091 C480.914,22.091 479.993,22.979 479.993,25.643 L479.993,33.737 C479.993,36.37 480.947,37.257 483.71,37.257 Z M462.022,40.481 L465.971,40.481 L465.971,18.932 L462.022,18.932 L462.022,40.481 Z M452.703,34.756 C452.703,38.703 450.662,40.876 445.202,40.876 C444.017,40.876 442.044,40.58 440.134,40.185 L440.168,36.534 C441.944,36.961 443.918,37.257 445.102,37.257 C447.867,37.257 448.787,36.402 448.787,34.888 L448.787,34.033 C448.787,32.882 448.326,32.29 447.044,31.863 L443.851,30.809 C440.662,29.758 439.575,28.343 439.575,24.952 L439.575,24.624 C439.575,20.709 441.55,18.539 446.254,18.539 C447.569,18.539 449.51,18.767 451.254,19.063 L451.188,22.65 C449.543,22.355 447.569,22.091 446.352,22.091 C444.281,22.091 443.524,22.914 443.524,24.392 L443.524,25.084 C443.524,26.27 443.885,26.729 445.595,27.289 L448.492,28.244 C451.55,29.263 452.703,30.809 452.703,34.132 L452.703,34.756 Z M425.911,33.046 L425.911,40.481 L421.963,40.481 L421.963,33.046 L415.745,18.932 L420.187,18.932 L423.969,29.23 L427.786,18.932 L432.128,18.932 L425.911,33.046 Z M407.081,40.481 L403.166,40.481 L403.166,31.172 L396.389,31.172 L396.389,40.481 L392.441,40.481 L392.441,18.932 L396.389,18.932 L396.389,27.617 L403.166,27.617 L403.166,18.932 L407.081,18.932 L407.081,40.481 Z M383.316,25.547 C383.316,29.722 380.849,32.255 375.849,32.255 C375.158,32.255 374.401,32.191 373.38,32.027 L373.38,40.481 L369.433,40.481 L369.433,18.735 C371.08,18.671 373.216,18.572 375.421,18.539 C380.849,18.504 383.316,20.973 383.316,24.82 L383.316,25.547 Z M359.321,33.605 C359.321,38.144 357.118,40.876 351.886,40.876 C346.688,40.876 344.485,38.144 344.485,33.605 L344.485,25.807 C344.485,21.204 346.722,18.539 351.886,18.539 C357.051,18.539 359.321,21.204 359.321,25.807 L359.321,33.605 Z M332.168,40.481 L327.497,31.795 C326.937,31.863 325.851,31.828 324.962,31.764 L324.962,40.481 L321.015,40.481 L321.015,18.735 C322.922,18.671 325.49,18.539 327.036,18.539 C332.529,18.539 334.832,20.908 334.832,24.592 L334.832,25.38 C334.832,27.684 333.582,29.758 331.18,30.776 L336.51,40.481 L332.168,40.481 Z M311.857,22.551 L305.936,22.551 L305.936,40.481 L302.021,40.481 L302.021,22.551 L296.1,22.551 L296.1,18.932 L311.857,18.932 L311.857,22.551 Z M288.588,34.756 C288.588,38.703 286.548,40.876 281.089,40.876 C279.905,40.876 277.931,40.58 276.021,40.185 L276.055,36.534 C277.832,36.961 279.805,37.257 280.99,37.257 C283.753,37.257 284.674,36.402 284.674,34.888 L284.674,34.033 C284.674,32.882 284.213,32.29 282.931,31.863 L279.739,30.809 C276.548,29.758 275.462,28.343 275.462,24.952 L275.462,24.624 C275.462,20.709 277.437,18.539 282.142,18.539 C283.457,18.539 285.398,18.767 287.142,19.063 L287.076,22.65 C285.431,22.355 283.457,22.091 282.24,22.091 C280.167,22.091 279.411,22.914 279.411,24.392 L279.411,25.084 C279.411,26.27 279.773,26.729 281.483,27.289 L284.378,28.244 C287.437,29.263 288.588,30.809 288.588,34.132 L288.588,34.756 Z M264.133,40.481 L262.981,35.974 L256.105,35.974 L254.955,40.481 L250.908,40.481 L257.29,18.932 L261.961,18.932 L268.344,40.481 L264.133,40.481 Z M233.591,59.632 L528.917,59.632 L528.917,0.422 L233.591,0.422 L233.591,59.632 Z" id="Fill-16" fill="#FFFFFE"></path>
                <polyline id="Fill-17" fill="#FFFFFE" points="233.634 75.39 235.181 75.39 235.181 81.25 242.282 81.25 242.282 75.39 243.828 75.39 243.828 88.752 242.282 88.752 242.282 82.662 235.181 82.662 235.181 88.752 233.634 88.752 233.634 75.39"></polyline>
                <path d="M255.047,77.088 L252.91,83.082 L257.205,83.082 L255.047,77.088 Z M252.432,84.418 L250.829,88.752 L249.263,88.752 L254.265,75.39 L255.83,75.39 L260.832,88.752 L259.265,88.752 L257.662,84.418 L252.432,84.418 Z" id="Fill-18" fill="#FFFFFE"></path>
                <path d="M269.683,81.593 C271.25,81.593 272.222,80.868 272.222,79.111 C272.222,77.699 271.478,76.764 269.588,76.764 L267.832,76.764 L267.832,81.593 L269.683,81.593 Z M266.286,75.39 L269.683,75.39 C272.414,75.39 273.845,76.764 273.845,79.093 C273.845,80.677 273.062,82.128 271.516,82.624 L274.837,88.752 L273.12,88.752 L270.103,82.948 L267.832,82.948 L267.832,88.752 L266.286,88.752 L266.286,75.39 Z" id="Fill-19" fill="#FFFFFE"></path>
                <polyline id="Fill-20" fill="#FFFFFE" points="283.787 88.752 278.709 75.39 280.408 75.39 284.607 86.919 288.826 75.39 290.525 75.39 285.447 88.752 283.787 88.752"></polyline>
                <path d="M299.074,77.088 L296.935,83.082 L301.23,83.082 L299.074,77.088 Z M296.459,84.418 L294.855,88.752 L293.289,88.752 L298.291,75.39 L299.855,75.39 L304.857,88.752 L303.292,88.752 L301.688,84.418 L296.459,84.418 Z" id="Fill-21" fill="#FFFFFE"></path>
                <path d="M313.71,81.593 C315.275,81.593 316.249,80.868 316.249,79.111 C316.249,77.699 315.503,76.764 313.615,76.764 L311.858,76.764 L311.858,81.593 L313.71,81.593 Z M310.312,75.39 L313.71,75.39 C316.439,75.39 317.871,76.764 317.871,79.093 C317.871,80.677 317.088,82.128 315.543,82.624 L318.863,88.752 L317.146,88.752 L314.129,82.948 L311.858,82.948 L311.858,88.752 L310.312,88.752 L310.312,75.39 Z" id="Fill-22" fill="#FFFFFE"></path>
                <g id="Group-27" transform="translate(324.000000, 75.000000)">
                    <mask id="mask-4" fill="white">
                        <use xlink:href="#path-3"></use>
                    </mask>
                    <g id="Clip-24"></g>
                    <path d="M3.506,12.377 C6.713,12.377 8.775,10.563 8.775,7.07 C8.775,3.73 6.713,1.783 3.506,1.783 L1.999,1.783 L1.999,12.377 L3.506,12.377 Z M0.453,0.39 L3.201,0.39 C7.763,0.39 10.359,2.89 10.359,7.07 C10.359,11.499 7.668,13.752 3.201,13.752 L0.453,13.752 L0.453,0.39 Z" id="Fill-23" fill="#FFFFFE" mask="url(#mask-4)"></path>
                    <path d="M28.353,6.459 C29.747,5.753 30.892,4.78 30.892,3.539 C30.892,2.317 29.996,1.42 28.621,1.42 C27.303,1.42 26.387,2.317 26.387,3.539 C26.387,4.742 27.341,5.601 28.353,6.459 Z M31.58,11.461 L27.399,7.434 C26.425,7.854 25.566,8.712 25.566,9.972 C25.566,11.651 26.998,12.625 28.697,12.625 C29.9,12.625 30.968,12.091 31.58,11.461 Z M32.591,12.511 C31.732,13.369 30.377,14 28.697,14 C25.795,14 24.058,12.243 24.058,10.049 C24.058,8.368 25.07,7.204 26.406,6.44 C25.662,5.677 24.956,4.799 24.956,3.481 C24.956,1.764 26.234,0.141 28.601,0.141 C30.93,0.141 32.324,1.516 32.324,3.501 C32.324,5.162 31.16,6.288 29.327,7.318 L32.496,10.373 C33.031,9.399 33.126,8.654 33.126,7.376 L34.576,7.376 C34.576,8.922 34.404,10.143 33.584,11.441 L34.977,12.835 L33.889,13.885 L32.591,12.511 Z" id="Fill-25" fill="#FFFFFE" mask="url(#mask-4)"></path>
                    <path d="M49.535,10.487 C49.898,11.517 50.699,12.568 52.456,12.568 C53.869,12.568 54.88,11.747 54.88,10.353 C54.88,7.014 48.619,7.872 48.619,3.558 C48.619,1.649 50.07,0.141 52.437,0.141 C54.823,0.141 55.892,1.802 56.216,2.699 L54.918,3.233 C54.613,2.565 53.887,1.554 52.418,1.554 C50.948,1.554 50.166,2.451 50.166,3.558 C50.166,6.612 56.445,5.982 56.445,10.258 C56.445,12.357 54.899,14 52.398,14 C49.802,14 48.638,12.339 48.218,11.06 L49.535,10.487" id="Fill-26" fill="#FFFFFE" mask="url(#mask-4)"></path>
                </g>
                <polyline id="Fill-28" fill="#FFFFFE" points="393.193 85.793 398.003 75.39 399.969 75.39 399.969 88.752 398.48 88.752 398.48 77.623 393.957 87.529 392.429 87.529 387.906 77.623 387.906 88.752 386.416 88.752 386.416 75.39 388.402 75.39 393.193 85.793"></polyline>
                <polygon id="Fill-29" fill="#FFFFFE" points="406.682 88.752 408.228 88.752 408.228 75.39 406.682 75.39"></polygon>
                <polyline id="Fill-30" fill="#FFFFFE" points="417.447 76.802 413.838 76.802 413.838 75.39 422.582 75.39 422.582 76.802 418.992 76.802 418.992 88.752 417.447 88.752 417.447 76.802"></polyline>
                <g id="Group-35" transform="translate(428.000000, 75.000000)">
                    <mask id="mask-6" fill="white">
                        <use xlink:href="#path-5"></use>
                    </mask>
                    <g id="Clip-32"></g>
                    <polyline id="Fill-31" fill="#FFFFFE" mask="url(#mask-6)" points="0.399 0.39 1.945 0.39 1.945 6.25 9.046 6.25 9.046 0.39 10.592 0.39 10.592 13.752 9.046 13.752 9.046 7.662 1.945 7.662 1.945 13.752 0.399 13.752 0.399 0.39"></polyline>
                    <path d="M17.765,10.487 C18.128,11.517 18.929,12.568 20.685,12.568 C22.098,12.568 23.11,11.747 23.11,10.353 C23.11,7.014 16.849,7.872 16.849,3.558 C16.849,1.649 18.299,0.141 20.667,0.141 C23.052,0.141 24.122,1.802 24.446,2.699 L23.148,3.233 C22.843,2.565 22.117,1.554 20.648,1.554 C19.177,1.554 18.395,2.451 18.395,3.558 C18.395,6.612 24.675,5.982 24.675,10.258 C24.675,12.357 23.128,14 20.628,14 C18.033,14 16.868,12.339 16.448,11.06 L17.765,10.487" id="Fill-33" fill="#FFFFFE" mask="url(#mask-6)"></path>
                    <path d="M36.697,12.549 C39.656,12.549 41.909,10.239 41.909,7.07 C41.909,3.94 39.656,1.592 36.697,1.592 C33.739,1.592 31.486,3.94 31.486,7.07 C31.486,10.239 33.739,12.549 36.697,12.549 Z M36.697,0.141 C40.591,0.141 43.512,3.176 43.512,7.07 C43.512,11.003 40.572,14 36.678,14 C32.803,14 29.882,11.041 29.882,7.07 C29.882,3.138 32.822,0.141 36.697,0.141 Z" id="Fill-34" fill="#FFFFFE" mask="url(#mask-6)"></path>
                </g>
                <polyline id="Fill-36" fill="#FFFFFE" points="477.443 75.39 478.99 75.39 486.357 86.309 486.357 75.39 487.884 75.39 487.884 88.752 486.357 88.752 478.99 77.871 478.99 88.752 477.443 88.752 477.443 75.39"></polyline>
                <polygon id="Fill-37" fill="#FFFFFE" points="494.599 88.752 496.145 88.752 496.145 75.39 494.599 75.39"></polygon>
                <path d="M507.367,77.088 L505.229,83.082 L509.524,83.082 L507.367,77.088 Z M504.752,84.418 L503.148,88.752 L501.584,88.752 L506.585,75.39 L508.15,75.39 L513.151,88.752 L511.586,88.752 L509.982,84.418 L504.752,84.418 Z" id="Fill-38" fill="#FFFFFE"></path>
                <polyline id="Fill-39" fill="#FFFFFE" points="518.587 75.39 520.133 75.39 527.502 86.309 527.502 75.39 529.029 75.39 529.029 88.752 527.502 88.752 520.133 77.871 520.133 88.752 518.587 88.752 518.587 75.39"></polyline>
            </g>
        </g>
    </g>
</svg>