<?xml version="1.0" encoding="UTF-8" standalone="no"?>
<!-- Created with Inkscape (http://www.inkscape.org/) -->

<svg
   xmlns:dc="http://purl.org/dc/elements/1.1/"
   xmlns:cc="http://creativecommons.org/ns#"
   xmlns:rdf="http://www.w3.org/1999/02/22-rdf-syntax-ns#"
   xmlns:svg="http://www.w3.org/2000/svg"
   xmlns="http://www.w3.org/2000/svg"
   xmlns:sodipodi="http://sodipodi.sourceforge.net/DTD/sodipodi-0.dtd"
   xmlns:inkscape="http://www.inkscape.org/namespaces/inkscape"
   width="238.39108mm"
   height="109.00833mm"
   viewBox="0 0 238.39108 109.00833"
   version="1.1"
   id="svg970"
   inkscape:version="0.92.5 (2060ec1f9f, 2020-04-08)"
   sodipodi:docname="patel_irc_64GHz.svg">
  <defs
     id="defs964" />
  <sodipodi:namedview
     id="base"
     pagecolor="#ffffff"
     bordercolor="#666666"
     borderopacity="1.0"
     inkscape:pageopacity="0.0"
     inkscape:pageshadow="2"
     inkscape:zoom="1.4"
     inkscape:cx="508.27057"
     inkscape:cy="136.93434"
     inkscape:document-units="mm"
     inkscape:current-layer="layer1"
     showgrid="false"
     inkscape:window-width="1904"
     inkscape:window-height="1010"
     inkscape:window-x="8"
     inkscape:window-y="36"
     inkscape:window-maximized="0" />
  <metadata
     id="metadata967">
    <rdf:RDF>
      <cc:Work
         rdf:about="">
        <dc:format>image/svg+xml</dc:format>
        <dc:type
           rdf:resource="http://purl.org/dc/dcmitype/StillImage" />
        <dc:title></dc:title>
      </cc:Work>
    </rdf:RDF>
  </metadata>
  <g
     inkscape:label="Layer 1"
     inkscape:groupmode="layer"
     id="layer1"
     transform="translate(13.362207,-129.10298)">
    <path
       style="fill:#000000;stroke:#000000;stroke-width:0;stroke-miterlimit:4;stroke-dasharray:none;stroke-opacity:1"
       d="m 102.52529,237.58215 c 0,-0.38674 -0.17639,-0.52917 -0.65536,-0.52917 -0.95961,0 -1.57914,-1.03941 -1.16339,-1.95188 0.2613,-0.57349 0.49254,-0.69395 1.33205,-0.69395 h 1.01587 v 1.85208 c 0,1.05833 -0.1134,1.85208 -0.26459,1.85208 -0.14552,0 -0.26458,-0.23812 -0.26458,-0.52916 z m -0.13229,-1.85209 c 0,-0.75423 -0.8351,-1.07402 -1.08744,-0.41643 -0.24072,0.6273 0.0999,1.26083 0.62362,1.15997 0.2929,-0.0564 0.46382,-0.33041 0.46382,-0.74354 z m 13.04698,1.84178 c 0.67137,-0.62547 0.70178,-0.93285 0.18218,-1.84178 -0.20796,-0.3638 -0.38234,-0.81028 -0.38749,-0.99218 -0.0176,-0.62103 0.45497,-0.33222 0.79343,0.48489 l 0.33784,0.81562 0.34295,-0.81562 c 0.39897,-0.94887 1.03228,-1.13517 0.74892,-0.22031 -0.10141,0.32742 -0.46863,1.16086 -0.81603,1.85208 -0.4622,0.91961 -0.78581,1.25677 -1.20625,1.25677 h -0.5746 z m 5.73878,-0.1586 c -0.7406,-1.13029 -0.79737,-2.49685 -0.15596,-3.75412 0.55587,-1.08959 1.08166,-1.4491 1.08166,-0.73958 0,0.20046 -0.16614,0.50236 -0.3692,0.67089 -0.68837,0.57129 -0.77088,2.08531 -0.17586,3.22689 0.61332,1.17666 0.64151,1.29399 0.3109,1.29399 -0.12878,0 -0.43998,-0.31413 -0.69154,-0.69807 z m 10.97986,0.57218 c 0,-0.0692 0.23768,-0.51573 0.52818,-0.99219 0.67534,-1.10765 0.67059,-2.2202 -0.0143,-3.34353 -0.64587,-1.0594 -0.46108,-1.42397 0.3239,-0.639 0.79812,0.79812 0.98342,3.03795 0.34882,4.21634 -0.26192,0.48635 -0.63606,0.88427 -0.83143,0.88427 -0.19536,0 -0.35521,-0.0567 -0.35521,-0.12589 z M 93.000293,235.0686 v -1.98437 h 1.17501 c 0.64625,0 1.24859,0.11906 1.33853,0.26458 0.0988,0.15979 -0.26184,0.26459 -0.91042,0.26459 -0.89756,0 -1.07395,0.0869 -1.07395,0.52916 0,0.35278 0.17639,0.52917 0.52916,0.52917 0.29104,0 0.52917,0.13021 0.52917,0.28935 0,0.15915 -0.23813,0.35163 -0.52917,0.42774 -0.37482,0.098 -0.52916,0.36089 -0.52916,0.90127 0,0.41959 -0.11907,0.76289 -0.26459,0.76289 -0.15287,0 -0.26458,-0.83785 -0.26458,-1.98438 z m 2.75761,1.62946 c -0.082,-0.21365 -0.11091,-0.78674 -0.0643,-1.27354 0.0751,-0.78411 0.18288,-0.89454 0.94468,-0.96799 0.93603,-0.0902 1.18727,0.33246 0.33073,0.55645 -0.38251,0.10002 -0.52917,0.36089 -0.52917,0.94128 0,0.87858 -0.4443,1.36316 -0.68197,0.7438 z m 2.32239,0.0374 c -0.17463,-0.17463 -0.3175,-0.62706 -0.3175,-1.00542 0,-0.37835 0.14287,-0.83079 0.3175,-1.00541 0.45997,-0.45997 1.71341,-0.39344 1.90315,0.10101 0.291827,0.7605 0.170037,0.9044 -0.76544,0.9044 -0.96498,0 -1.23893,0.35249 -0.49563,0.63772 0.23672,0.0908 0.59679,0.0271 0.80014,-0.14169 0.498297,-0.41355 0.781847,-0.082 0.36225,0.42362 -0.40022,0.48223 -1.36228,0.52796 -1.80447,0.0858 z m 1.19834,-1.69444 c -0.0879,-0.0879 -0.31612,-0.0973 -0.50712,-0.0209 -0.21106,0.0845 -0.14837,0.14715 0.15986,0.15985 0.27891,0.0115 0.43518,-0.0511 0.34726,-0.13897 z m 4.745967,1.83555 c -0.28175,-0.28174 -0.20362,-2.46944 0.0882,-2.46944 0.14552,0 0.26458,0.48898 0.26458,1.08664 0,0.88217 0.0787,1.05642 0.41852,0.92604 0.23018,-0.0883 0.46831,-0.1606 0.52917,-0.1606 0.0609,0 0.11065,-0.41672 0.11065,-0.92604 0,-0.50932 0.11906,-0.92604 0.26458,-0.92604 0.14552,0 0.26458,0.59531 0.26458,1.32291 v 1.32294 h -0.88194 c -0.48507,0 -0.96132,-0.0794 -1.05833,-0.17639 z m 2.87585,-0.43338 c -0.62397,-0.95231 -0.15687,-2.03606 0.87756,-2.03606 0.82023,0 1.51844,0.59094 1.23673,1.04674 -0.0939,0.1519 -0.52084,0.27617 -0.94882,0.27617 -0.42797,0 -0.77813,0.11204 -0.77813,0.24897 0,0.44783 0.50705,0.57524 1.07649,0.27048 0.48024,-0.25701 0.5454,-0.23098 0.46623,0.1862 -0.14759,0.77771 -1.42215,0.78267 -1.93006,0.007 z m 1.37402,-1.40217 c -0.0879,-0.0879 -0.31613,-0.0973 -0.50712,-0.0209 -0.21107,0.0845 -0.14838,0.14715 0.15985,0.15985 0.27891,0.0115 0.43518,-0.0511 0.34727,-0.13897 z m 1.39457,0.68902 v -1.32291 h 1.05329 c 0.89094,0 1.07784,0.0978 1.21256,0.63454 0.20404,0.81299 0.0591,1.75167 -0.28148,1.82333 -0.14552,0.0306 -0.30196,-0.39808 -0.34766,-0.95266 -0.0642,-0.77872 -0.18466,-0.98909 -0.52916,-0.92384 -0.30468,0.0577 -0.47212,0.39833 -0.52821,1.07447 -0.12151,1.46485 -0.57934,1.20175 -0.57934,-0.33293 z m 3.18828,0.94204 c -0.41883,-0.50465 -0.25357,-1.74713 0.2765,-2.07879 0.48129,-0.30114 1.82689,-0.044 1.82689,0.34905 0,0.1433 -0.38689,0.23033 -0.85974,0.1934 -0.70076,-0.0547 -0.87458,0.0367 -0.94003,0.49448 -0.0917,0.6415 0.63234,1.04891 1.13004,0.63585 0.43669,-0.36242 0.73806,-0.0111 0.37045,0.43182 -0.38842,0.46801 -1.40636,0.45345 -1.80411,-0.0258 z m 10.18818,-0.20716 c -0.57431,-0.81994 -0.5155,-2.11137 0.1276,-2.80165 0.67187,-0.72117 1.35154,-0.73778 1.97553,-0.0483 0.60534,0.66889 0.30431,1.03114 -0.35845,0.43135 -0.5781,-0.52317 -1.2737,-0.33678 -1.50892,0.40431 -0.22754,0.71694 0.0567,1.71764 0.5407,1.90335 0.47293,0.18148 1.19291,-0.0525 1.19291,-0.38769 0,-0.12995 -0.17859,-0.23628 -0.39687,-0.23628 -0.21828,0 -0.39688,-0.11906 -0.39688,-0.26458 0,-0.14552 0.29766,-0.26458 0.66146,-0.26458 0.51383,0 0.66146,0.13582 0.66146,0.60854 0,0.3347 -0.14288,0.75141 -0.3175,0.92604 -0.52627,0.52627 -1.72728,0.37729 -2.18104,-0.27054 z m 3.02771,-1.24843 c 0,-1.01006 0.11906,-1.91005 0.26458,-1.99999 0.15436,-0.0954 0.26458,0.17364 0.26458,0.64584 0,0.74861 0.0695,0.80937 0.92604,0.80937 0.85652,0 0.92605,-0.0608 0.92605,-0.80937 0,-0.4722 0.11022,-0.74124 0.26458,-0.64584 0.14552,0.0899 0.26458,0.92338 0.26458,1.85208 0,0.92871 -0.11906,1.76215 -0.26458,1.85209 -0.15436,0.0954 -0.26458,-0.17364 -0.26458,-0.64584 0,-0.74861 -0.0695,-0.80937 -0.92605,-0.80937 -0.85254,0 -0.92604,0.063 -0.92604,0.79375 0,0.43656 -0.11906,0.79375 -0.26458,0.79375 -0.15098,0 -0.26458,-0.78855 -0.26458,-1.83647 z m 3.43958,1.66301 c 0,-0.0954 0.30372,-0.57166 0.67492,-1.05834 l 0.67493,-0.88487 h -0.67493 c -0.3712,0 -0.67492,-0.11906 -0.67492,-0.26458 0,-0.14552 0.47625,-0.26458 1.05833,-0.26458 1.19551,0 1.38175,0.41904 0.52917,1.19062 -0.29104,0.26339 -0.52917,0.5795 -0.52917,0.70247 0,0.12296 0.23813,0.22357 0.52917,0.22357 0.29104,0 0.52917,0.11907 0.52917,0.26459 0,0.14552 -0.47625,0.26458 -1.05834,0.26458 -0.58208,0 -1.05833,-0.0781 -1.05833,-0.17346 z M 16.265819,226.33096 c -0.457076,-0.55075 -0.164852,-0.76582 0.487225,-0.35859 0.431271,0.26934 0.613579,0.26664 0.951806,-0.0141 0.577954,-0.47966 0.523741,-1.09814 -0.110807,-1.26408 -0.61096,-0.15977 -0.622824,-0.20104 -0.255275,-0.88781 0.237312,-0.44341 0.184306,-0.51176 -0.396875,-0.51176 -0.368922,0 -0.670767,-0.11906 -0.670767,-0.26458 0,-0.14552 0.485709,-0.26459 1.079357,-0.26459 1.053775,0 1.075354,0.0182 0.910551,0.76857 -0.09683,0.44087 -0.04939,0.84236 0.111268,0.94165 0.419264,0.25912 0.337489,1.36957 -0.1357,1.84276 -0.528881,0.52888 -1.536919,0.53528 -1.970783,0.0125 z m 3.394903,0.0725 c -0.945663,-0.75235 -0.719926,-3.17739 0.326692,-3.50958 0.699354,-0.22197 1.539316,0.2972 1.733666,1.07156 0.488543,1.9465 -0.784585,3.45299 -2.060358,2.43802 z m 1.363596,-0.71021 c 0.376272,-0.70308 0.343085,-1.40913 -0.09435,-2.00736 -0.312875,-0.42788 -0.432223,-0.45051 -0.79375,-0.15047 -0.74024,0.61435 -0.423166,2.6696 0.411853,2.6696 0.111297,0 0.32561,-0.2303 0.47625,-0.51177 z m 1.795246,0.75516 c -0.614667,-0.35801 -0.648049,-2.6664 -0.04725,-3.2672 0.998104,-0.9981 2.230059,-0.094 2.230059,1.63668 0,1.61889 -0.965075,2.33979 -2.182812,1.63052 z m 1.379754,-0.75516 c 0.376272,-0.70308 0.343085,-1.40913 -0.09435,-2.00736 -0.312875,-0.42788 -0.432223,-0.45051 -0.79375,-0.15047 -0.74024,0.61435 -0.423166,2.6696 0.411853,2.6696 0.111297,0 0.32561,-0.2303 0.47625,-0.51177 z m 28.915037,0.86571 c -0.181901,-0.0734 -0.330729,-0.30213 -0.330729,-0.50828 0,-0.45661 0.125288,-0.4663 0.775857,-0.06 0.395324,0.24688 0.59436,0.2399 0.922451,-0.0324 0.577953,-0.47966 0.52374,-1.09814 -0.110808,-1.26408 -0.61096,-0.15977 -0.622824,-0.20104 -0.255275,-0.88781 0.237313,-0.44342 0.184306,-0.51177 -0.396875,-0.51177 -0.368922,0 -0.670766,-0.11907 -0.670766,-0.26459 0,-0.14552 0.485709,-0.26458 1.079357,-0.26458 1.053774,0 1.075354,0.0182 0.91055,0.76856 -0.09683,0.44088 -0.04939,0.84236 0.111268,0.94166 0.419264,0.25912 0.337489,1.36957 -0.1357,1.84276 -0.405124,0.40512 -1.231947,0.50984 -1.89933,0.24054 z m 4.0718,-0.008 c -0.09306,-0.0931 -0.169195,-0.75169 -0.169195,-1.46362 0,-0.79559 -0.101965,-1.23142 -0.264584,-1.13092 -0.456065,0.28187 -0.288075,-0.2936 0.219909,-0.75332 0.681823,-0.61704 0.838425,-0.32275 0.838425,1.57555 0,1.54596 -0.221721,2.17515 -0.624555,1.77232 z m 2.363246,-0.23219 c -0.592448,-0.59245 -0.549532,-2.55617 0.06808,-3.1151 1.057127,-0.95669 2.16198,-0.13158 2.16198,1.61457 0,1.17057 -0.514819,1.9163 -1.322917,1.9163 -0.270253,0 -0.678468,-0.1871 -0.907143,-0.41577 z m 1.383392,-0.43085 c 0.848595,-0.84859 0.01675,-3.06686 -0.873125,-2.32833 -0.691774,0.57412 -0.381019,2.64583 0.396875,2.64583 0.08731,0 0.301625,-0.14287 0.47625,-0.3175 z m 28.88719,0.4434 c -0.45707,-0.55075 -0.16485,-0.76582 0.48723,-0.35859 0.43127,0.26934 0.61358,0.26664 0.9518,-0.0141 0.57796,-0.47966 0.52374,-1.09814 -0.1108,-1.26408 -0.57151,-0.14945 -0.68859,-0.47607 -0.26459,-0.73812 0.49172,-0.3039 0.26874,-0.66146 -0.41249,-0.66146 -0.384,0 -0.60629,-0.11452 -0.51355,-0.26458 0.17671,-0.28593 1.79329,-0.36748 2.057,-0.10377 0.0884,0.0884 0.019,0.40166 -0.15434,0.69603 -0.24664,0.41884 -0.24325,0.56125 0.0156,0.65498 0.54583,0.19767 0.4073,1.86816 -0.18104,2.18303 -0.73012,0.39075 -1.48644,0.33856 -1.87479,-0.12938 z m 2.91573,0.24543 c 0,-0.0868 0.48034,-0.70354 1.06743,-1.37051 0.94987,-1.07911 1.02363,-1.25648 0.6697,-1.61042 -0.35394,-0.35393 -0.45694,-0.34417 -0.93515,0.0886 -0.44759,0.40507 -0.5374,0.41858 -0.5374,0.0809 0,-1.11204 1.91248,-1.26584 2.25664,-0.18148 0.1254,0.39509 -0.0613,0.84649 -0.65629,1.58689 l -0.83154,1.03473 h 0.80622 c 0.44342,0 0.80622,0.11907 0.80622,0.26459 0,0.14552 -0.59531,0.26458 -1.32292,0.26458 -0.7276,0 -1.32291,-0.071 -1.32291,-0.15784 z m 3.61288,-0.32602 c -0.60436,-0.6678 -0.57697,-2.48326 0.046,-3.04701 1.05713,-0.95669 2.16198,-0.13158 2.16198,1.61457 0,1.71125 -1.23219,2.51065 -2.20795,1.43244 z m 1.36128,-0.36281 c 0.8486,-0.84859 0.0168,-3.06686 -0.87312,-2.32833 -0.69178,0.57412 -0.38102,2.64583 0.39687,2.64583 0.0873,0 0.30163,-0.14287 0.47625,-0.3175 z m 28.887197,0.4434 c -0.42897,-0.51688 -0.13097,-0.83295 0.38309,-0.40633 0.21481,0.17828 0.63441,0.24676 0.93243,0.15217 0.7059,-0.22405 0.71486,-1.19896 0.0127,-1.38258 -0.5715,-0.14945 -0.68858,-0.47607 -0.26458,-0.73812 0.49171,-0.30389 0.26873,-0.66146 -0.41249,-0.66146 -0.38401,0 -0.60629,-0.11452 -0.51355,-0.26458 0.17671,-0.28592 1.79329,-0.36747 2.057,-0.10377 0.0884,0.0884 0.022,0.38314 -0.14772,0.65486 -0.23695,0.37941 -0.23333,0.56924 0.0156,0.81814 0.50867,0.50868 0.39575,1.74881 -0.18767,2.06105 -0.73012,0.39074 -1.48644,0.33855 -1.87479,-0.12938 z m 3.175,0 c -0.42897,-0.51688 -0.13097,-0.83295 0.38309,-0.40633 0.21481,0.17828 0.63441,0.24676 0.93243,0.15217 0.7059,-0.22405 0.71486,-1.19896 0.0127,-1.38258 -0.5715,-0.14945 -0.68858,-0.47607 -0.26458,-0.73812 0.49171,-0.30389 0.26873,-0.66146 -0.41249,-0.66146 -0.38401,0 -0.60629,-0.11452 -0.51355,-0.26458 0.17671,-0.28592 1.79329,-0.36747 2.057,-0.10377 0.0884,0.0884 0.022,0.38314 -0.14772,0.65486 -0.23695,0.37941 -0.23333,0.56924 0.0156,0.81814 0.50867,0.50868 0.39575,1.74881 -0.18767,2.06105 -0.73012,0.39074 -1.48644,0.33855 -1.87479,-0.12938 z m 3.33149,-0.0125 c -0.59244,-0.59245 -0.54953,-2.55617 0.0681,-3.1151 1.0864,-0.98316 2.16198,-0.21378 2.16198,1.54651 0,1.23997 -0.49626,1.98437 -1.32291,1.98437 -0.27026,0 -0.67847,-0.18709 -0.90715,-0.41577 z m 1.3834,-0.43088 c 0.45825,-0.45826 0.39028,-1.93856 -0.10801,-2.3521 -0.81746,-0.67843 -1.50803,0.99947 -0.8881,2.15782 0.31681,0.59197 0.55245,0.63793 0.99611,0.19428 z m 28.88719,0.44339 c -0.42897,-0.51687 -0.13096,-0.83295 0.38309,-0.40632 0.21481,0.17828 0.63441,0.24675 0.93244,0.15216 0.7059,-0.22404 0.71485,-1.19895 0.0127,-1.38257 -0.57151,-0.14945 -0.68859,-0.47607 -0.26459,-0.73812 0.49171,-0.3039 0.26874,-0.66146 -0.41249,-0.66146 -0.384,0 -0.60629,-0.11452 -0.51355,-0.26458 0.17899,-0.28961 1.7948,-0.36597 2.06326,-0.0975 0.0919,0.0919 0.0412,0.40233 -0.1127,0.68986 -0.19838,0.37067 -0.19567,0.6069 0.009,0.81188 0.47915,0.47915 0.34237,1.72363 -0.22268,2.02604 -0.73012,0.39074 -1.48643,0.33855 -1.87478,-0.12938 z m 4.50322,-0.12589 c 0,-0.41158 -0.17639,-0.52917 -0.79375,-0.52917 -1.06275,0 -1.00526,-0.41915 0.25402,-1.85208 l 1.04634,-1.19063 0.0113,1.25677 c 0.008,0.93573 0.11267,1.25677 0.40816,1.25677 0.21828,0 0.39687,0.11906 0.39687,0.26459 0,0.14552 -0.17859,0.26458 -0.39687,0.26458 -0.22049,0 -0.39688,0.23518 -0.39688,0.52917 0,0.29104 -0.11906,0.52916 -0.26458,0.52916 -0.14552,0 -0.26458,-0.23812 -0.26458,-0.52916 z m 0,-1.6316 c 0,-0.3153 -0.0337,-0.52366 -0.0749,-0.46302 -0.0412,0.0606 -0.23435,0.3186 -0.42927,0.57326 -0.30336,0.39634 -0.29258,0.46302 0.0749,0.46302 0.26389,0 0.42927,-0.22085 0.42927,-0.57326 z m 2.154,1.92485 c -0.19774,-0.12529 -0.41839,-0.74995 -0.49032,-1.38812 -0.10027,-0.88959 -0.0114,-1.3078 0.38104,-1.79241 1.079,-1.33249 2.67059,0.1467 2.27674,2.11595 -0.21934,1.09669 -1.2882,1.62168 -2.16746,1.06458 z m 1.23267,-0.61075 c 0.45826,-0.45826 0.39028,-1.93856 -0.10801,-2.3521 -0.81745,-0.67843 -1.50803,0.99947 -0.8881,2.15782 0.31681,0.59197 0.55246,0.63793 0.99611,0.19428 z m 28.88719,0.44339 c -0.44586,-0.53723 -0.17067,-0.76786 0.49265,-0.41286 0.29296,0.15679 0.71988,0.21323 0.9487,0.12542 0.5388,-0.20676 0.53845,-1.13101 -5.3e-4,-1.33783 -0.28665,-0.11 -0.36759,-0.35493 -0.25954,-0.78544 0.13467,-0.53657 0.0599,-0.6256 -0.5251,-0.6256 -0.38737,0 -0.61146,-0.11433 -0.51859,-0.26458 0.17899,-0.28961 1.79479,-0.36597 2.06326,-0.0975 0.0919,0.0919 0.063,0.36147 -0.0641,0.59907 -0.14985,0.28 -0.10003,0.61137 0.1416,0.94182 0.50637,0.6925 0.46901,1.10623 -0.15637,1.73161 -0.62846,0.62846 -1.65436,0.68933 -2.12197,0.1259 z m 3.29744,0.028 c -0.64443,-0.47122 -0.34741,-0.82495 0.37021,-0.44089 0.73511,0.39342 1.41072,0.0812 1.31259,-0.6066 -0.0633,-0.44349 -0.2636,-0.56095 -0.95226,-0.55835 -0.8363,0.003 -0.8689,-0.0349 -0.79375,-0.92604 0.0731,-0.86637 0.14559,-0.9349 1.07056,-1.01145 0.57435,-0.0475 0.99219,0.036 0.99219,0.19844 0,0.1543 -0.29063,0.28055 -0.64585,0.28055 -0.35521,0 -0.71942,0.11906 -0.80936,0.26459 -0.0899,0.14552 0.0816,0.26458 0.38126,0.26458 0.63435,0 1.60311,0.87938 1.60311,1.45521 0,0.54893 -0.95717,1.45521 -1.53693,1.45521 -0.26323,0 -0.70952,-0.16886 -0.99177,-0.37525 z m 3.20516,-0.21279 c -1.06513,-1.5207 0.22904,-4.093 1.59904,-3.17823 0.90509,0.60435 1.09205,2.49978 0.33637,3.41032 -0.45312,0.54598 -1.47637,0.42327 -1.93541,-0.23209 z m 1.28628,-0.10173 c 0.53272,-0.20443 0.56956,-2.0305 0.0497,-2.46197 -0.28478,-0.23634 -0.46569,-0.20927 -0.79375,0.11879 -0.48818,0.48819 -0.54621,1.25358 -0.15102,1.99201 0.30632,0.57236 0.31244,0.57476 0.8951,0.35117 z M 1.8957433,220.47273 c -0.09718,-0.0972 -0.1767,-20.69513 -0.1767,-45.77323 V 129.10298 H 113.37396 225.02887 l -0.0669,45.70677 -0.0669,45.70677 -111.41132,0.0665 C 52.207536,220.61953 1.9929283,220.56992 1.8957433,220.47273 Z m 3.527467,-1.14684 c 0,-0.29104 0.119062,-0.52916 0.264583,-0.52916 0.145521,0 0.264583,0.23812 0.264583,0.52916 0,0.50204 0.17639,0.52917 3.439584,0.52917 3.2631927,0 3.4395827,-0.0271 3.4395827,-0.52917 0,-0.29104 0.0923,-0.52916 0.205121,-0.52916 0.112818,0 0.158845,-1.25016 0.102282,-2.77813 -0.08967,-2.42234 -0.04817,-2.77812 0.324046,-2.77812 0.276201,0 0.426884,-0.22797 0.426884,-0.64585 0,-0.35521 0.119063,-0.71942 0.264584,-0.80936 0.14552,-0.0899 0.264583,-0.0374 0.264583,0.11668 0,0.1541 0.172913,0.28019 0.384249,0.28019 0.284586,0 0.404683,-0.41245 0.463021,-1.59019 0.04332,-0.8746 0.197834,-1.59526 0.343355,-1.60147 0.288936,-0.0123 0.287285,-0.0192 0.535686,2.22959 0.109855,0.99452 0.262837,1.46001 0.426156,1.29669 0.557464,-0.55746 0.747033,-9.00187 0.755902,-33.67212 0.0051,-14.18828 0.08106,-26.06476 0.168812,-26.39218 0.08774,-0.32743 0.264713,-0.59532 0.393261,-0.59532 0.133844,0 0.237162,13.03089 0.241771,30.49323 0.0055,20.84354 0.09339,30.34671 0.27773,30.03021 0.419166,-0.71966 0.768998,-0.54796 0.808588,0.39688 0.02606,0.62184 0.06778,0.69508 0.150693,0.26458 0.07169,-0.37218 0.30611,-0.59531 0.625428,-0.59531 0.4998,0 0.510765,-0.4004 0.510765,-18.65313 0,-10.97904 0.09869,-18.65312 0.239892,-18.65312 0.420195,0 0.558522,4.50495 0.623134,20.29373 0.04869,11.89754 0.138215,15.47409 0.393744,15.72948 0.181902,0.18179 0.33073,0.71971 0.33073,1.19536 0,0.66003 0.09398,0.82875 0.396875,0.71253 0.21849,-0.0838 0.396875,-0.47653 0.396875,-0.87365 0,-1.20156 0.374943,-1.18558 0.700085,0.0298 l 0.306297,1.14499 0.02598,-0.99219 c 0.03313,-1.26585 0.555136,-1.31027 0.555136,-0.0473 0,0.83995 0.0441,0.90084 0.396875,0.54807 0.235508,-0.23551 0.396875,-0.88231 0.396875,-1.59079 0,-0.65665 0.119062,-1.26749 0.264583,-1.35743 0.145521,-0.0899 0.264583,0.0816 0.264583,0.38126 0,0.29963 0.171408,0.54478 0.380902,0.54478 0.245317,0 0.417849,0.35319 0.484691,0.99219 0.077,0.73607 0.115268,0.59948 0.148264,-0.52917 0.06169,-2.11007 0.573643,-1.93297 0.573643,0.19844 0,0.94589 0.106326,1.71979 0.236276,1.71979 0.312965,0 0.55662,-0.67005 0.561086,-1.54299 0.006,-1.18087 0.299558,-1.9384 0.692618,-1.78757 0.301892,0.11585 0.362104,-1.30792 0.362104,-8.56235 0,-4.78572 0.07201,-8.88895 0.160014,-9.1183 0.455025,-1.18578 0.633736,0.43862 0.633736,5.76037 0,3.2381 0.109836,5.99764 0.244223,6.13595 0.134324,0.13824 0.29508,0.60854 0.357233,1.0451 0.06215,0.43656 0.130847,-13.82117 0.152651,-31.68385 0.02498,-20.46105 0.133271,-32.47761 0.292695,-32.47761 0.159383,0 0.281803,13.24597 0.33073,35.7849 0.04272,19.68169 0.170786,35.92852 0.284588,36.10407 0.1138,0.17555 0.381691,0.2521 0.595313,0.17013 0.339201,-0.13016 0.3884,-5.42396 0.3884,-41.79261 v -41.64357 h -2.248958 c -2.072569,0 -2.248959,0.0415 -2.248959,0.52917 0,0.29104 -0.119062,0.52917 -0.264583,0.52917 -0.145521,0 -0.264583,-0.23813 -0.264583,-0.52917 0,-0.50203 -0.17639,-0.52917 -3.439584,-0.52917 h -3.439581 v 1.19063 c 0,0.65484 -0.119063,1.19062 -0.264583,1.19062 -0.145521,0 -0.264584,-0.53578 -0.264584,-1.19062 v -1.19063 h -3.439583 c -3.263194,0 -3.439583,0.0271 -3.439583,0.52917 0,0.29104 -0.119063,0.52917 -0.264584,0.52917 -0.145521,0 -0.264583,-0.23813 -0.264583,-0.52917 0,-0.50203 -0.17639,-0.52917 -3.4395827,-0.52917 -3.263194,0 -3.439584,0.0271 -3.439584,0.52917 0,0.29104 -0.119062,0.52917 -0.264583,0.52917 -0.145521,0 -0.264583,-0.23813 -0.264583,-0.52917 0,-0.47037 -0.17639,-0.52917 -1.5875,-0.52917 h -1.5875 v 3.28889 c 0,3.20926 0.01441,3.29094 0.595312,3.37344 0.773761,0.10989 0.76911,0.58905 -0.0068,0.69915 -0.599937,0.0851 -0.601838,0.0999 -0.529167,4.10104 0.07166,3.9456 0.08338,4.01709 0.67217,4.10067 0.707161,0.10038 0.527147,0.5764 -0.217977,0.5764 -0.486259,0 -0.513552,0.21795 -0.513552,4.10104 v 4.10104 h 0.661458 c 0.363802,0 0.661458,0.11906 0.661458,0.26458 0,0.14552 -0.297656,0.26459 -0.661458,0.26459 h -0.661458 v 4.10104 c 0,3.88309 0.02729,4.10104 0.513552,4.10104 0.282453,0 0.587136,0.11906 0.677073,0.26458 0.09274,0.15007 -0.129544,0.26459 -0.513552,0.26459 h -0.677073 v 4.10104 4.10104 h 1.212673 c 1.565444,0 1.46799,0.62668 -0.115565,0.74315 l -1.110724,0.0817 0.07295,4.01935 c 0.07169,3.94948 0.08337,4.02083 0.67219,4.10441 0.707162,0.10039 0.527148,0.5764 -0.217976,0.5764 -0.486259,0 -0.513552,0.21795 -0.513552,4.10104 v 4.10104 h 0.661458 c 0.363802,0 0.661458,0.11907 0.661458,0.26459 0,0.14552 -0.297656,0.26458 -0.661458,0.26458 h -0.661458 v 4.10104 c 0,3.88309 0.02729,4.10104 0.513552,4.10104 0.282453,0 0.587136,0.11907 0.677073,0.26459 0.09274,0.15006 -0.129544,0.26458 -0.513552,0.26458 h -0.677073 v 4.08264 c 0,3.90504 0.02347,4.08632 0.539647,4.16719 0.296806,0.0465 0.539647,0.20361 0.539647,0.34913 0,0.14552 -0.242841,0.30263 -0.539647,0.34913 -0.516605,0.0809 -0.537485,0.24475 -0.489002,3.83646 0.0484,3.58523 0.05721,3.64118 0.198438,1.25944 0.0977,-1.64767 0.25989,-2.52951 0.478521,-2.60174 0.24374,-0.0805 0.330729,0.38367 0.330729,1.76487 0,1.03077 0.109325,1.87413 0.242944,1.87413 0.133619,0 0.431275,0.0723 0.661457,0.1606 0.320498,0.12299 0.420487,-0.0164 0.426929,-0.59531 0.0073,-0.65438 0.05216,-0.69846 0.334106,-0.32817 0.370538,0.48665 0.85499,0.15426 1.019394,-0.69943 0.148627,-0.77174 0.610029,-0.49135 0.756463,0.45971 0.105714,0.68658 0.189497,0.78653 0.396875,0.47343 0.163848,-0.24737 0.294997,-6.10301 0.348144,-15.54427 0.07266,-12.9073 0.141136,-15.14739 0.46302,-15.14739 0.31391,0 0.377751,0.84227 0.377751,4.98372 0,2.74105 0.07887,9.82379 0.175268,15.73944 0.139777,8.57772 0.242454,10.69995 0.507061,10.48035 0.24243,-0.2012 0.365109,-0.14688 0.455499,0.20171 0.06807,0.26253 0.137506,0.0904 0.154397,-0.38283 0.03402,-0.95306 0.5297777,-1.16436 0.7506067,-0.31991 0.07767,0.29699 0.274879,0.49549 0.438251,0.4411 0.215887,-0.0719 0.34916,-8.40592 0.487804,-30.50404 0.298487,-47.57584 0.29431,-47.27989 0.669134,-47.40473 0.263591,-0.0878 0.330729,7.84668 0.330729,39.08584 0,26.06329 0.08865,39.1412 0.264584,39.03247 0.167476,-0.1035 0.264583,0.57052 0.264583,1.83647 0,1.09999 -0.07992,1.99999 -0.177604,1.99999 -0.09768,0 -0.385652,-0.18828 -0.639932,-0.4184 -0.423865,-0.38359 -0.508143,-0.37259 -1.013021,0.13229 -0.65627,0.65627 -1.0396987,0.69863 -1.2545977,0.13861 -0.08697,-0.22664 -0.322393,-0.34904 -0.523161,-0.272 -0.200766,0.077 -0.651521,0.0312 -1.001681,-0.10198 -0.479245,-0.18221 -0.673444,-0.14617 -0.785468,0.14576 -0.130678,0.34054 -0.262441,0.34035 -1.080844,-0.002 -0.512615,-0.2142 -0.932024,-0.28386 -0.932024,-0.1548 0,0.12905 -0.208359,0.2396 -0.463021,0.24567 -0.254662,0.006 -0.939271,0.0476 -1.521354,0.0923 l -1.058333,0.0813 -0.08064,1.24708 -0.08064,1.24708 h 1.601997 c 1.425607,0 1.601997,-0.0583 1.601997,-0.52916 z m 14.8166657,-0.39687 c 0,-0.78992 -0.08946,-0.92604 -0.608541,-0.92604 -0.334698,0 -0.721651,0.10355 -0.859896,0.23012 -0.138245,0.12657 -0.696257,0.29742 -1.240023,0.37967 -0.756504,0.11443 -1.049737,0.0449 -1.248725,-0.29627 -0.225811,-0.38711 -0.261117,-0.36742 -0.268102,0.1495 -0.0099,0.73602 -0.536811,0.78629 -0.724355,0.0691 -0.07568,-0.28941 -0.25644,-0.45275 -0.401685,-0.36298 -0.145249,0.0898 -0.36984,-7.9e-4 -0.499094,-0.20141 -0.18261,-0.28333 -0.271383,-0.2319 -0.398153,0.23068 -0.08973,0.32742 -0.26832,0.59532 -0.396867,0.59532 -0.128548,0 -0.233725,0.23812 -0.233725,0.52916 0,0.50203 0.176389,0.52917 3.439583,0.52917 h 3.439583 z m 7.377642,0.33073 c -0.0231,-0.44799 -0.06064,-0.48073 -0.151694,-0.13229 -0.185697,0.7106 -0.611364,0.54941 -0.611364,-0.23151 0,-0.62271 -0.0781,-0.67892 -0.755166,-0.5435 -0.419992,0.084 -0.889722,0.0165 -1.058333,-0.15214 -0.227836,-0.22783 -0.303168,-0.1914 -0.303168,0.14663 0,0.69343 -0.998709,0.56579 -1.138634,-0.14553 l -0.117105,-0.59531 -0.20697,0.63444 c -0.169318,0.51902 -0.259834,0.56715 -0.497565,0.26458 -0.407472,-0.5186 -0.950143,-0.57872 -0.950143,-0.10527 0,0.21828 -0.119062,0.39688 -0.264583,0.39688 -0.145521,0 -0.264583,-0.1786 -0.264583,-0.39688 0,-0.21828 -0.119063,-0.39687 -0.264584,-0.39687 -0.145521,0 -0.264583,0.41672 -0.264583,0.92604 v 0.92604 h 3.439583 c 3.399682,0 3.439226,-0.007 3.408892,-0.59531 z m 1.528837,-0.26459 c -0.0734,-0.1819 -0.133454,-0.0331 -0.133454,0.33073 0,0.36381 0.06006,0.51263 0.133454,0.33073 0.0734,-0.1819 0.0734,-0.47955 0,-0.66146 z m 2.999771,0.38365 c 0,-0.49075 -0.472762,-1.11125 -0.846666,-1.11125 -0.116417,0 -0.211667,0.35719 -0.211667,0.79375 0,0.61736 0.117591,0.79375 0.529167,0.79375 0.333179,0 0.529166,-0.17639 0.529166,-0.47625 z m 2.116667,-0.18521 c 0,-0.3638 -0.105182,-0.66146 -0.233738,-0.66146 -0.128559,0 -0.29064,0.29766 -0.360185,0.66146 -0.08479,0.44355 -0.0078,0.66146 0.233738,0.66146 0.207809,0 0.360185,-0.27983 0.360185,-0.66146 z m 7.9375,0.13229 c 0,-0.29104 0.119062,-0.52916 0.264583,-0.52916 0.145521,0 0.264584,0.23812 0.264584,0.52916 0,0.50204 0.176389,0.52917 3.439583,0.52917 3.263194,0 3.439583,-0.0271 3.439583,-0.52917 0,-0.29104 0.119063,-0.52916 0.264584,-0.52916 0.14552,0 0.264583,0.23812 0.264583,0.52916 0,0.50204 0.17639,0.52917 3.439583,0.52917 2.922477,0 3.439584,-0.0613 3.439584,-0.40794 0,-1.1783 -2.204969,-2.14682 -2.481355,-1.08992 -0.135795,0.51929 -0.16867,0.51228 -0.801865,-0.17095 -0.816102,-0.88059 -0.950114,-0.88778 -0.950114,-0.051 0,0.3638 -0.119062,0.66145 -0.264583,0.66145 -0.145521,0 -0.264583,-0.24186 -0.264583,-0.53746 0,-0.5483 -0.823863,-1.08146 -0.980623,-0.63462 -0.314984,0.89787 -0.571386,1.01007 -1.051515,0.46014 -0.618395,-0.7083 -1.91117,-1.12681 -2.643664,-0.85585 -0.396745,0.14677 -0.615024,0.0995 -0.712366,-0.15414 -0.103635,-0.27007 -0.342123,-0.30788 -0.911649,-0.14454 -0.424212,0.12166 -1.266454,0.13066 -1.871646,0.02 -0.605192,-0.11067 -1.147422,-0.12505 -1.204953,-0.032 -0.05753,0.0931 -0.977701,0.15754 -2.044824,0.14323 -1.06712,-0.0143 -2.148578,0.0768 -2.40324,0.20244 -0.289919,0.14306 -0.46302,0.12608 -0.46302,-0.0454 0,-0.15065 -0.178594,-0.2739 -0.396875,-0.2739 -0.25036,0 -0.396875,0.25233 -0.396875,0.68351 0,0.82886 -0.621366,0.73814 -0.746006,-0.10892 -0.148215,-1.00727 -1.176264,-0.63958 -1.460331,0.5223 -0.120851,0.49431 -0.05507,0.74457 0.223845,0.8516 0.217245,0.0834 0.394992,0.3339 0.394992,0.55675 0,0.34224 0.513741,0.40518 3.307291,0.40518 3.130902,0 3.307292,-0.0282 3.307292,-0.52917 z m 22.225,0.31733 c 0,-0.49882 -0.688922,-1.63628 -0.992188,-1.63818 -0.181901,-0.001 -0.330729,0.28857 -0.330729,0.64378 0,0.80639 -0.416298,1.09636 -0.741005,0.51614 -0.134398,-0.24016 -0.407038,-0.38243 -0.605867,-0.31615 -0.198826,0.0663 -0.59658,-0.0985 -0.883893,-0.36618 -0.484198,-0.4511 -0.540565,-0.4542 -0.770975,-0.0425 -0.228645,0.40857 -0.279244,0.40354 -0.630785,-0.0626 -0.373198,-0.49489 -0.391761,-0.49281 -0.788358,0.0885 -0.48772,0.71485 -0.789786,0.75679 -0.952981,0.13229 -0.06655,-0.25466 -0.134814,-0.0761 -0.151694,0.39688 l -0.03069,0.85989 h 3.439584 c 1.89177,0 3.439583,-0.0953 3.439583,-0.21183 z m 0.79375,-0.44962 c 0,-0.3638 -0.102553,-0.66146 -0.227894,-0.66146 -0.125341,0 -0.170992,0.29766 -0.101446,0.66146 0.06955,0.3638 0.172095,0.66146 0.227893,0.66146 0.0558,0 0.101447,-0.29766 0.101447,-0.66146 z m 6.614583,0.26459 c 0,-0.21829 -0.119062,-0.39688 -0.264583,-0.39688 -0.145521,0 -0.264583,-0.2527 -0.264583,-0.56156 0,-0.45342 -0.07189,-0.5019 -0.373319,-0.25174 -0.255207,0.2118 -0.42757,0.22205 -0.544783,0.0324 -0.364524,-0.58981 -1.147649,-0.27501 -1.448985,0.58247 l -0.302189,0.85989 -0.511561,-0.66146 c -0.281361,-0.3638 -0.522579,-0.89958 -0.536043,-1.19062 -0.02363,-0.5105 -0.03149,-0.51129 -0.223105,-0.0225 -0.230436,0.58784 -1.113644,0.80031 -1.407226,0.33853 -0.112273,-0.1766 -0.202724,0.12173 -0.204989,0.67612 l -0.0041,0.99219 h 3.042708 c 2.528242,0 3.042708,-0.0671 3.042708,-0.39688 z m 7.14375,0.0324 c 0,-0.20047 0.178594,-0.5127 0.396875,-0.69386 0.54628,-0.45337 0.520801,-1.1625 -0.03412,-0.94956 -0.237045,0.091 -0.824521,0.0231 -1.305499,-0.15084 -0.700884,-0.25344 -0.958982,-0.24611 -1.300012,0.0369 -0.322283,0.26748 -0.499803,0.27885 -0.731779,0.0469 -0.231976,-0.23197 -0.377042,-0.13314 -0.597995,0.40743 l -0.291724,0.71369 -0.640755,-0.64076 c -0.702546,-0.70254 -1.228648,-0.87718 -1.469335,-0.48775 -0.08558,0.13848 -0.383712,0.17939 -0.662508,0.0909 -0.387898,-0.12311 -0.5069,-0.0325 -0.5069,0.38612 0,0.30085 0.119063,0.54699 0.264584,0.54699 0.14552,0 0.264583,0.23813 0.264583,0.52917 0,0.50094 0.17639,0.52917 3.307292,0.52917 2.632773,0 3.307291,-0.0743 3.307291,-0.36448 z m 1.918229,0.18925 c -0.181901,-0.0734 -0.330729,-0.38442 -0.330729,-0.69114 0,-0.54717 -0.0073,-0.54801 -0.388461,-0.0441 -0.56002,0.74041 -0.497448,0.91311 0.322315,0.88957 0.400183,-0.0115 0.578777,-0.0809 0.396875,-0.15434 z m 2.315105,-0.33833 c 0,-0.70184 -0.492064,-0.95344 -0.710174,-0.36311 -0.0975,0.26388 -0.305017,0.56726 -0.461153,0.67418 -0.156136,0.10691 0.04354,0.19621 0.443722,0.19843 0.545233,0.003 0.727605,-0.12466 0.727605,-0.5095 z m 2.627235,-0.34634 c -0.01558,-0.7206 -0.05543,-0.77418 -0.245985,-0.33073 -0.314106,0.73096 -0.314106,1.19062 0,1.19062 0.14552,0 0.256214,-0.38695 0.245985,-0.85989 z m 7.956098,0.48024 c 0,-0.82667 -0.53983,-1.78953 -0.92124,-1.64317 -0.21161,0.0812 -0.45867,0.028 -0.54905,-0.11824 -0.10964,-0.1774 -0.27304,-0.17565 -0.49102,0.005 -0.22371,0.18566 -0.41507,0.18276 -0.60703,-0.009 -0.30418,-0.30418 -2.5304,-0.38671 -2.9775,-0.11039 -0.15125,0.0935 -0.27499,-0.004 -0.27499,-0.21776 0,-0.67022 -0.93501,-0.19206 -1.2485,0.63848 -0.1626,0.43078 -0.185495,0.77634 -0.0514,0.77634 0.13288,0 0.2416,0.23813 0.2416,0.52917 0,0.50203 0.17639,0.52917 3.43959,0.52917 2.81166,0 3.43958,-0.0693 3.43958,-0.37965 z m 4.49792,-0.0328 c 0,-0.22687 -0.11907,-0.3389 -0.26459,-0.24896 -0.14552,0.0899 -0.26458,-0.0301 -0.26458,-0.2668 0,-0.30089 -0.14974,-0.3828 -0.49783,-0.27232 -0.33147,0.10521 -0.56137,5.3e-4 -0.68796,-0.31289 -0.17105,-0.42365 -0.21317,-0.41116 -0.41969,0.1244 -0.22246,0.57692 -0.77577,0.83482 -0.77577,0.36159 0,-0.12855 -0.23813,-0.29599 -0.52917,-0.3721 -0.43953,-0.11494 -0.52916,-0.008 -0.52916,0.6306 v 0.76897 h 1.98437 c 1.62089,0 1.98438,-0.0756 1.98438,-0.41249 z m 2.910407,0.20421 c 0,-0.11455 -0.23932,-0.2263 -0.53182,-0.24833 -0.2925,-0.022 -0.717717,-0.22597 -0.944937,-0.45318 -0.55694,-0.55695 -0.6399,-0.52475 -0.6399,0.24834 0,0.59531 0.10583,0.66145 1.058327,0.66145 0.58208,0 1.05833,-0.0937 1.05833,-0.20828 z m 2.64584,-0.18859 c 0,-0.36623 -0.32702,-0.51999 -0.88963,-0.4183 -0.12549,0.0227 -0.36362,-0.12517 -0.52917,-0.32857 -0.46466,-0.57089 -1.22704,-0.75925 -1.22704,-0.30316 0,0.21371 0.11907,0.38857 0.26459,0.38857 0.14552,0 0.26458,0.23813 0.26458,0.52917 0,0.44097 0.17639,0.52916 1.05833,0.52916 0.76436,0 1.05834,-0.11024 1.05834,-0.39687 z m 1.05833,0.14791 c 0,-0.13694 -0.11906,-0.32256 -0.26458,-0.41249 -0.14552,-0.0899 -0.26459,0.0221 -0.26459,0.24896 0,0.22687 0.11907,0.41249 0.26459,0.41249 0.14552,0 0.26458,-0.11203 0.26458,-0.24896 z m 16.32294,-0.73819 c -0.0671,-0.25743 -0.12638,-0.11087 -0.13178,0.3257 -0.005,0.43656 0.0495,0.64718 0.12197,0.46805 0.0725,-0.17913 0.0769,-0.53632 0.01,-0.79375 z m 2.06833,0.39184 0.19674,-0.59531 0.11711,0.59531 c 0.11421,0.58063 0.20148,0.59531 3.53828,0.59531 h 3.42118 v -1.09072 c 0,-0.85801 -0.0725,-1.03057 -0.33973,-0.80878 -0.36103,0.29962 -0.91726,0.28876 -1.42361,-0.0278 -0.16947,-0.10595 -0.37783,-0.0431 -0.46302,0.13973 -0.12432,0.26678 -0.18545,0.26678 -0.30978,0 -0.23496,-0.50422 -0.63886,-0.11694 -0.63886,0.61258 0,0.35521 -0.11906,0.64584 -0.26458,0.64584 -0.14552,0 -0.26458,-0.23812 -0.26458,-0.52917 0,-0.41419 -0.18684,-0.53597 -0.8599,-0.56049 -0.47294,-0.0172 -0.96805,-0.011 -1.10023,0.014 -0.13219,0.0249 -0.33872,-0.10982 -0.45897,-0.2994 -0.1615,-0.25462 -0.21969,-0.21875 -0.22269,0.13726 -0.003,0.36929 -0.17413,0.46206 -0.73165,0.39687 -0.62237,-0.0728 -0.73971,0.0202 -0.81132,0.64253 -0.10068,0.87494 0.33896,0.96941 0.61561,0.13229 z m 14.68165,0.0661 c 0,-0.29104 0.11906,-0.52916 0.26458,-0.52916 0.14552,0 0.26458,0.23812 0.26458,0.52916 0,0.50079 0.17639,0.52917 3.28946,0.52917 3.0571,0 3.30133,-0.0374 3.45742,-0.52917 0.0924,-0.29104 0.27899,-0.52916 0.4147,-0.52916 0.13572,0 0.24676,0.23812 0.24676,0.52916 0,0.48507 0.17639,0.52917 2.11666,0.52917 1.70509,0 2.11667,-0.0772 2.11667,-0.39688 0,-0.38672 -0.29929,-0.50862 -1.01182,-0.41211 -0.19269,0.0261 -0.52011,-0.0934 -0.7276,-0.26563 -0.30645,-0.25434 -0.37725,-0.20771 -0.37725,0.24847 0,0.30886 -0.11906,0.56157 -0.26458,0.56157 -0.14552,0 -0.26458,-0.1786 -0.26458,-0.39688 0,-0.21828 -0.11907,-0.39687 -0.26459,-0.39687 -0.14552,0 -0.26458,-0.29766 -0.26458,-0.66146 0,-0.74768 -0.64224,-0.90875 -0.90396,-0.22672 -0.0918,0.23911 -0.24237,0.35921 -0.33469,0.26688 -0.0923,-0.0923 -0.33673,-0.0277 -0.54311,0.14356 -0.28935,0.24013 -0.42238,0.23513 -0.58121,-0.0219 -0.15925,-0.25768 -0.30638,-0.23285 -0.64867,0.10943 -0.33411,0.33412 -0.53001,0.37024 -0.79866,0.14727 -0.43508,-0.36107 -1.21678,-0.10187 -1.21678,0.40349 0,0.61474 -0.46083,0.4123 -0.63424,-0.27862 -0.15048,-0.59957 -0.2237,-0.62583 -0.99518,-0.35689 -0.70072,0.24427 -0.88591,0.21759 -1.16806,-0.16826 -0.42388,-0.5797 -1.66524,-0.4696 -2.28171,0.20236 -0.46959,0.51187 -1.00623,0.39907 -1.00623,-0.21149 0,-0.20892 -0.19168,-0.30674 -0.46302,-0.2363 -0.25466,0.0661 -0.6904,-0.0466 -0.96831,-0.25057 -0.43715,-0.32076 -0.57097,-0.31454 -0.99219,0.0461 -0.2678,0.22929 -0.4869,0.56902 -0.4869,0.75496 0,0.18594 -0.11906,0.33808 -0.26458,0.33808 -0.14552,0 -0.26458,-0.22162 -0.26458,-0.49248 0,-0.38264 -0.14753,-0.46427 -0.66146,-0.36603 -0.55031,0.1052 -0.66146,0.27687 -0.66146,1.02164 v 0.8952 h 3.43958 c 3.2632,0 3.43959,-0.0271 3.43959,-0.52917 z m 16.90696,0.19844 c -0.0145,-0.1819 -0.1217,-0.62839 -0.23821,-0.99219 -0.18906,-0.59032 -0.21468,-0.55476 -0.23821,0.33073 -0.0145,0.5457 0.0927,0.99219 0.23821,0.99219 0.14552,0 0.25271,-0.14883 0.23821,-0.33073 z m 1.0847,-0.0505 c 0,-0.20969 -0.11906,-0.45485 -0.26458,-0.54478 -0.14552,-0.0899 -0.26458,0.0816 -0.26458,0.38126 0,0.29963 0.11906,0.54478 0.26458,0.54478 0.14552,0 0.26458,-0.17157 0.26458,-0.38126 z m 2.86268,-0.21197 c -0.0704,-0.49362 -0.25114,-0.59358 -1.07668,-0.59531 -0.85309,-0.002 -0.99214,0.0814 -0.99219,0.59323 -5e-5,0.51984 0.13644,0.59531 1.07668,0.59531 0.96424,0 1.0679,-0.062 0.99219,-0.59323 z m 1.02223,0.0144 c -0.0845,-0.21107 -0.14716,-0.14837 -0.15985,0.15985 -0.0115,0.27892 0.051,0.43519 0.13896,0.34727 0.0879,-0.0879 0.0973,-0.31613 0.0209,-0.50712 z m 7.49218,-0.34726 c 0,-0.50932 -0.10933,-0.92604 -0.24295,-0.92604 -0.13362,0 -0.43127,-0.0723 -0.66145,-0.1606 -0.27464,-0.10539 -0.41852,-0.0144 -0.41852,0.26458 0,0.49493 -0.52522,0.58727 -0.53721,0.0945 -0.004,-0.1819 -0.13455,-0.11318 -0.28916,0.15271 -0.25951,0.4463 -0.31478,0.45045 -0.71956,0.054 -0.24114,-0.2362 -0.61704,-0.57281 -0.83532,-0.74802 -0.34768,-0.27908 -0.38639,-2.72308 -0.31229,-19.7152 0.0643,-14.7572 0.15928,-19.37175 0.39687,-19.2926 0.23396,0.0779 0.34548,4.45659 0.44459,17.45647 0.1165,15.2821 0.25948,18.75113 0.71973,17.46245 0.065,-0.1819 0.34632,-0.33073 0.62523,-0.33073 0.49011,0 0.50712,-0.3106 0.50712,-9.26042 0,-5.99722 0.0932,-9.26041 0.26458,-9.26041 0.1702,0 0.26459,2.68993 0.26459,7.54062 0,4.8507 0.0944,7.54063 0.26458,7.54063 0.16819,0 0.26458,-2.07257 0.26458,-5.68854 0,-3.61598 0.0964,-5.68855 0.26459,-5.68855 0.16947,0 0.26458,-2.42534 0.26458,-6.74687 0,-4.32153 0.0951,-6.74688 0.26458,-6.74688 0.17231,0 0.26459,3.98639 0.26459,11.43 0,8.06966 0.0827,11.34734 0.28117,11.14883 0.17772,-0.17772 0.31566,-2.65543 0.37488,-6.73365 0.0515,-3.54886 0.1036,-6.83942 0.1157,-7.31236 0.0121,-0.47295 0.14106,-0.8599 0.28658,-0.8599 0.16837,0 0.26458,2.11667 0.26458,5.82083 0,3.70417 0.0962,5.82084 0.26459,5.82084 0.16218,0 0.26458,1.2716 0.26458,3.28565 0,3.47987 0.10549,4.12268 0.67656,4.12268 0.24516,0 0.38497,0.4718 0.45083,1.52136 0.0644,1.02641 0.11174,0.68211 0.1455,-1.05834 0.0293,-1.51005 0.15973,-2.57969 0.31461,-2.57969 0.14552,0 0.26458,-0.36992 0.26458,-0.82205 0,-0.62202 0.0966,-0.785 0.39688,-0.66976 0.26995,0.10359 0.39687,-0.0143 0.39687,-0.36857 0,-0.28648 0.11907,-0.52087 0.26459,-0.52087 0.15097,0 0.26458,0.78855 0.26458,1.83647 0,1.01006 0.11906,1.91006 0.26458,1.99999 0.14552,0.0899 0.26459,0.75181 0.26459,1.47083 0,1.36269 0.33959,1.73805 0.64415,0.71199 0.16905,-0.56956 0.19535,-0.55812 0.60802,0.26458 0.23723,0.47294 0.52879,0.85989 0.64791,0.85989 0.11912,0 0.21658,-1.7264 0.21658,-3.83645 0,-2.38125 0.10036,-3.83646 0.26459,-3.83646 0.1614,0 0.28192,1.41871 0.30906,3.63802 0.0245,2.00091 0.0912,3.19154 0.14826,2.64583 0.0571,-0.5457 0.21566,-0.99219 0.3524,-0.99219 0.13673,0 0.24861,-0.52585 0.24861,-1.16857 0,-0.64272 0.10298,-1.20826 0.22885,-1.25677 0.12652,-0.0488 0.28874,-17.92345 0.36279,-39.97413 l 0.13394,-39.88594 h -1.28883 c -1.11244,0 -1.28883,0.0724 -1.28883,0.52917 0,0.29104 -0.11907,0.52916 -0.26459,0.52916 -0.14552,0 -0.26458,-0.23812 -0.26458,-0.52916 0,-0.50203 -0.17639,-0.52917 -3.43958,-0.52917 h -3.43959 v 1.20624 c 0,0.73678 -0.10297,1.1426 -0.26458,1.04272 -0.14552,-0.0899 -0.26458,-0.63275 -0.26458,-1.20624 v -1.04273 h -3.43959 c -3.26319,0 -3.43958,0.0271 -3.43958,0.52917 0,0.29104 -0.11906,0.52917 -0.26458,0.52917 -0.14552,0 -0.26459,-0.23813 -0.26459,-0.52917 0,-0.41157 -0.17639,-0.52917 -0.79375,-0.52917 h -0.79375 l 0.0549,40.94427 c 0.0302,22.51935 0.0942,39.84295 0.14223,38.49688 0.11511,-3.22671 0.59661,-3.18592 0.59661,0.0505 0,1.37988 0.11843,2.57112 0.26459,2.66145 0.16846,0.10411 0.26458,-0.65351 0.26458,-2.08544 0,-1.23693 0.11906,-2.32254 0.26458,-2.41248 0.14552,-0.0899 0.26459,-0.58024 0.26459,-1.08956 0,-0.54999 0.10744,-0.85964 0.26458,-0.76252 0.14654,0.0906 0.28929,1.5436 0.31996,3.25676 l 0.0554,3.09324 0.0865,-2.57969 c 0.0476,-1.41883 0.19154,-2.57969 0.31992,-2.57969 0.12838,0 0.30601,1.51805 0.39473,3.37344 0.0887,1.85539 0.22514,4.66583 0.30317,6.24543 0.11382,2.3042 0.0731,2.84742 -0.20587,2.74773 -0.19126,-0.0683 -0.5561,-0.0171 -0.81076,0.11388 -1.08407,0.55756 -0.32419,0.74869 2.97656,0.74869 h 3.43959 z m 7.40833,0.39688 c 0,-0.29105 0.11906,-0.52917 0.26458,-0.52917 0.14552,0 0.26459,0.23812 0.26459,0.52917 0,0.50203 0.17639,0.52916 3.43958,0.52916 2.38198,0 3.43958,-0.092 3.43958,-0.2992 0,-0.19418 -0.32504,-0.24645 -0.92604,-0.14892 -0.79135,0.12841 -0.92604,0.0757 -0.92604,-0.36226 0,-0.52407 -0.49949,-0.59086 -0.86492,-0.11566 -0.1269,0.16502 -0.33701,0.0903 -0.55834,-0.19844 -0.19518,-0.25466 -0.49057,-0.46302 -0.65643,-0.46302 -0.16586,0 -0.31343,-0.14883 -0.32793,-0.33073 -0.0145,-0.1819 -0.10381,-0.0558 -0.19844,0.2802 -0.25673,0.91155 -0.68987,0.82986 -0.78414,-0.1479 -0.0748,-0.77595 -0.16652,-0.8599 -0.93927,-0.8599 -0.471,0 -0.99924,-0.14288 -1.17386,-0.3175 -0.24695,-0.24694 -0.3175,-0.24582 -0.3175,0.005 0,0.208 -0.22465,0.26616 -0.6326,0.16377 -0.34792,-0.0873 -0.70729,-0.0379 -0.7986,0.10983 -0.0913,0.14773 -0.57028,0.20299 -1.06441,0.12281 -0.80843,-0.13119 -0.9429,-0.0598 -1.34266,0.71329 -0.44296,0.8566 -0.44513,0.85735 -0.75039,0.25905 -0.47892,-0.93872 -0.8279,-0.76166 -0.91666,0.46506 l -0.0814,1.12448 h 2.92563 c 2.74924,2e-5 2.92563,-0.0319 2.92563,-0.52915 z m 13.48534,-0.33073 c -0.008,-0.82189 -0.026,-0.83669 -0.40539,-0.33468 -0.39239,0.51917 -0.39874,0.51841 -0.5516,-0.0662 -0.1845,-0.70551 -0.0755,-0.69148 -1.16179,-0.14958 -0.63296,0.31576 -0.91501,0.35349 -0.98874,0.13229 -0.17615,-0.52842 -0.52287,-0.34139 -0.70384,0.37969 -0.12654,0.50416 -0.30395,0.65492 -0.66086,0.56159 -0.26833,-0.0702 -0.64988,-0.0249 -0.84789,0.10052 -0.21474,0.13606 0.78774,0.22974 2.48425,0.23216 l 2.84427,0.004 z m 3.11951,0.27805 c -0.57298,-1.00123 -1.20712,-1.59813 -1.50334,-1.41506 -0.35893,0.22184 -0.37441,0.93857 -0.0203,0.93857 0.14552,0 0.26458,0.23812 0.26458,0.52917 0,0.4119 0.17639,0.52916 0.79599,0.52916 0.74457,0 0.77448,-0.0376 0.46303,-0.58184 z m 10.38265,-0.15899 c 0,-0.85538 -0.42457,-1.37583 -1.12238,-1.37583 -0.43817,0 -0.47958,-0.20703 -0.4101,-2.05052 0.0768,-2.03741 0.1383,-2.13964 1.06946,-1.77724 0.4254,0.16556 0.46302,-0.0801 0.46302,-3.0231 0,-1.76182 0.10418,-3.20331 0.23151,-3.20331 0.36543,0 0.56224,1.4471 0.56224,4.13411 0,1.94381 0.0797,2.48047 0.36857,2.48047 0.40455,0 0.68976,-0.55596 0.68976,-1.34455 0,-0.27914 0.11907,-0.50753 0.26459,-0.50753 0.14552,0 0.26458,0.28378 0.26458,0.63061 0,0.46255 0.17629,0.66432 0.66146,0.75706 0.5809,0.11105 0.66146,0.0343 0.66146,-0.63061 0,-0.41638 0.11906,-0.75706 0.26458,-0.75706 0.14552,0 0.26458,0.29766 0.26458,0.66146 0,0.77782 0.20792,0.83848 0.6802,0.19844 0.31642,-0.42881 0.36133,-0.41415 0.60772,0.19843 0.19977,0.49669 0.27079,-0.19532 0.28511,-2.77812 0.0217,-3.92167 0.2462,-6.26925 0.5797,-6.06313 0.12569,0.0777 0.22852,1.56296 0.22852,3.30062 0,1.92987 0.10297,3.15938 0.26459,3.15938 0.14552,0 0.26458,-0.34745 0.26458,-0.77211 0,-0.42466 0.0723,-0.96044 0.1606,-1.19062 0.27972,-0.72896 0.63315,-0.45292 0.63315,0.4945 0,1.34923 0.53683,3.61139 0.81606,3.43882 0.13325,-0.0824 0.24227,-0.4999 0.24227,-0.92787 0,-0.84213 0.42713,-1.06999 0.5907,-0.31511 0.0552,0.25466 0.19138,-4.89479 0.30265,-11.44323 0.11128,-6.54844 0.29665,-12.00303 0.41195,-12.12131 0.39659,-0.40688 0.53096,2.35374 0.56425,11.59214 0.0184,5.09323 0.12303,10.21292 0.23261,11.37708 0.10975,1.16607 0.21716,-6.58723 0.23916,-17.26406 0.0262,-12.71748 0.1309,-19.38073 0.30452,-19.38073 0.17398,0 0.26458,6.64925 0.26458,19.41857 0,17.01687 0.0491,19.4374 0.39687,19.57086 0.28673,0.11003 0.39688,-0.029 0.39688,-0.50085 0,-0.35924 0.11906,-0.65316 0.26458,-0.65316 0.17503,0 0.26459,-11.59757 0.26459,-34.26354 0,-18.84495 0.10097,-34.26354 0.22437,-34.26354 0.46852,0 0.56938,6.5688 0.56938,37.08282 0,19.29498 0.0954,31.44426 0.24701,31.44426 0.13585,0 0.2966,0.32742 0.35723,0.7276 0.0606,0.40019 0.12891,0.0132 0.15175,-0.85989 0.0689,-2.63584 0.36495,-5.15938 0.60518,-5.15938 0.12448,0 0.24965,0.80367 0.27815,1.78594 l 0.0518,1.78594 0.0926,-1.78594 c 0.0509,-0.98227 0.20618,-1.78594 0.34505,-1.78594 0.15244,0 0.2525,-2.25414 0.2525,-5.68854 0,-3.61597 0.0964,-5.68854 0.26458,-5.68854 0.16564,0 0.27566,1.80568 0.2942,4.82865 0.0163,2.65575 0.11609,5.95973 0.22178,7.34218 0.11668,1.52611 0.20899,-2.60554 0.23497,-10.51718 0.0279,-8.48224 0.13516,-13.03073 0.30738,-13.03073 0.17301,0 0.26459,4.77935 0.26459,13.8089 0,12.19846 0.0453,13.74901 0.38846,13.29531 0.33756,-0.44629 0.38956,-5.84377 0.39687,-41.19328 0.008,-40.5061 0.006,-40.67968 -0.52075,-40.67968 -0.35278,0 -0.52917,0.17639 -0.52917,0.52916 0,0.29104 -0.11906,0.52917 -0.26458,0.52917 -0.14552,0 -0.26458,-0.23813 -0.26458,-0.52917 0,-0.50203 -0.17639,-0.52916 -3.43959,-0.52916 -3.26319,0 -3.43958,0.0271 -3.43958,0.52916 0,0.29104 -0.11906,0.52917 -0.26458,0.52917 -0.14552,0 -0.26459,-0.23813 -0.26459,-0.52917 0,-0.50203 -0.17639,-0.52916 -3.43958,-0.52916 h -3.43958 v 1.20624 c 0,0.73678 -0.10298,1.1426 -0.26459,1.04271 -0.14552,-0.0899 -0.26458,-0.63274 -0.26458,-1.20624 v -1.04273 h -3.27643 c -3.05392,0 -3.28583,0.0359 -3.41482,0.52917 -0.17953,0.68653 -0.71708,0.68653 -0.71708,0 0,-0.50094 -0.17639,-0.52917 -3.3073,-0.52917 -3.18688,0 -3.30729,0.0203 -3.30729,0.55748 0,0.38683 -0.12148,0.51085 -0.39687,0.40518 -0.35173,-0.13497 -0.39688,4.51219 -0.39688,40.84981 0,27.15836 0.0893,41.00212 0.26459,41.00212 0.17429,0 0.26458,-7.58473 0.26458,-22.225 0,-14.64028 0.0903,-22.225 0.26458,-22.225 0.17397,0 0.27982,7.72461 0.30906,22.55573 0.0245,12.40565 0.0912,22.10924 0.14827,21.56354 0.10706,-1.02351 0.60101,-1.40404 0.60101,-0.46302 0,0.64428 0.34329,0.67724 0.93115,0.0894 0.37175,-0.37175 0.47638,-0.38198 0.67631,-0.0661 0.1568,0.2477 0.23788,0.26564 0.24057,0.0532 0.002,-0.17624 0.27194,-0.56995 0.59936,-0.87493 l 0.59531,-0.5545 0.1323,-16.25698 c 0.0855,-10.50673 0.22587,-16.28034 0.39687,-16.323 0.17313,-0.0432 0.31032,5.48561 0.39688,15.99433 0.10173,12.35038 0.20869,16.13671 0.46302,16.39094 0.1819,0.18183 0.33255,0.63421 0.33478,1.00529 0.003,0.50894 0.0633,0.58111 0.24507,0.29377 0.13409,-0.21193 0.769,-0.42069 1.43117,-0.47057 l 1.19016,-0.0897 0.18122,1.45044 c 0.0997,0.79773 0.13758,2.82519 0.0842,4.50546 l -0.097,3.05503 h 1.39095 c 1.34703,0 1.39095,-0.0234 1.39095,-0.74083 z m 2.38125,-0.2587 c 0,-0.66718 -0.17338,-1.14799 -0.52145,-1.44601 -0.50324,-0.43088 -0.53146,-0.40926 -0.8084,0.61921 -0.15783,0.58612 -0.35263,1.23683 -0.4329,1.44601 -0.11029,0.28739 0.0873,0.38032 0.8084,0.38032 0.92766,0 0.95435,-0.028 0.95435,-0.99953 z m 7.40833,0.47037 c 0,-0.29105 0.11907,-0.52917 0.26459,-0.52917 0.14552,0 0.26458,0.23812 0.26458,0.52917 0,0.50094 0.17639,0.52916 3.30729,0.52916 h 3.30729 v -1.05834 c 0,-1.1341 -0.16207,-1.29966 -0.63676,-0.65049 -0.26446,0.36167 -0.36166,0.34876 -0.85841,-0.11404 -0.41298,-0.38474 -0.79422,-0.48539 -1.45074,-0.38298 -0.4898,0.0764 -0.93912,0.18622 -0.99849,0.24404 -0.0594,0.0578 -0.28138,-0.0388 -0.49335,-0.21473 -0.31116,-0.25824 -0.47691,-0.20683 -0.8605,0.26688 -0.58101,0.71751 -0.78716,0.74067 -0.78716,0.0884 0,-0.5258 -1.12215,-1.01129 -1.27882,-0.55327 -0.10476,0.30627 -0.83785,0.35005 -0.83785,0.05 0,-0.11429 -0.50602,-0.20358 -1.12448,-0.19844 -0.90742,0.008 -1.17489,0.12427 -1.38566,0.60467 -0.29165,0.66478 -0.66486,0.79206 -0.66486,0.22675 0,-0.20272 -0.17859,-0.4371 -0.39687,-0.52087 -0.2493,-0.0957 -0.39688,0.003 -0.39688,0.26459 0,0.24883 -0.14948,0.35952 -0.3708,0.27459 -0.22611,-0.0868 -0.42738,0.074 -0.51578,0.41207 -0.12224,0.46746 -0.20929,0.50099 -0.55524,0.21388 -0.35289,-0.29288 -0.41026,-0.24346 -0.41026,0.35337 v 0.69385 h 3.43958 c 3.26319,0 3.43958,-0.0271 3.43958,-0.52917 z m 9.26042,0.13229 c 0,-0.21828 -0.11906,-0.39688 -0.26458,-0.39688 -0.14552,0 -0.26459,-0.381 -0.26459,-0.84666 0,-1.0963 -0.41274,-0.65796 -0.61036,0.64823 -0.13862,0.91618 -0.10072,0.99218 0.49471,0.99218 0.39678,0 0.64482,-0.15266 0.64482,-0.39687 z m 3.70417,-1.45522 v -1.85209 h -1.05834 c -0.85231,0 -1.05833,0.095 -1.05833,0.48816 0,0.26849 -0.23813,0.70366 -0.52917,0.96705 -0.32826,0.29707 -0.52916,0.81491 -0.52916,1.36393 v 0.88503 h 1.5875 1.5875 z m 0,-6.46389 c 0,-3.90505 -0.0235,-4.08632 -0.53965,-4.16719 -0.29681,-0.0465 -0.53965,-0.20361 -0.53965,-0.34913 0,-0.14552 0.24284,-0.30263 0.53965,-0.34913 0.51617,-0.0809 0.53965,-0.26215 0.53965,-4.16719 v -4.08264 h -0.67708 c -0.384,0 -0.60629,-0.11452 -0.51355,-0.26458 0.0899,-0.14552 0.39462,-0.26459 0.67708,-0.26459 0.48625,0 0.51355,-0.21795 0.51355,-4.10104 v -4.10104 h -0.66146 c -0.3638,0 -0.66146,-0.11906 -0.66146,-0.26458 0,-0.14552 0.29766,-0.26459 0.66146,-0.26459 h 0.66146 v -4.10104 c 0,-3.88309 -0.0273,-4.10104 -0.51355,-4.10104 -0.28246,0 -0.58714,-0.11906 -0.67708,-0.26458 -0.0927,-0.15006 0.12955,-0.26459 0.51355,-0.26459 h 0.67708 v -4.10104 -4.10104 h -1.05834 -1.05833 l 0.001,18.71927 c 8e-4,10.2956 0.0784,20.05873 0.17272,21.69583 l 0.17151,2.97657 h 0.88562 0.88562 v -4.08264 z m -95.28588,-4.97934 c 0.0199,-0.99032 0.15375,-1.78594 0.30046,-1.78594 0.16332,0 0.26458,1.36702 0.26458,3.57188 0,2.99861 0.0637,3.57187 0.39688,3.57187 0.2915,0 0.40742,0.33369 0.43661,1.25677 l 0.0397,1.25677 0.1587,-1.19062 c 0.16226,-1.21737 0.61677,-1.61259 0.76069,-0.66146 0.044,0.29104 0.14468,0.8267 0.22364,1.19036 l 0.14356,0.6612 0.36592,-0.6612 c 0.30706,-0.55482 0.36744,-7.37586 0.3753,-42.39922 l 0.009,-41.73802 h -0.79375 c -0.76587,0 -0.79375,0.0424 -0.79375,1.20624 0,0.73679 -0.10297,1.1426 -0.26458,1.04272 -0.14552,-0.0899 -0.26459,-0.63274 -0.26459,-1.20624 v -1.04272 h -3.43958 c -3.26319,0 -3.43958,0.0271 -3.43958,0.52917 0,0.29104 -0.11907,0.52917 -0.26459,0.52917 -0.14552,0 -0.26458,-0.23813 -0.26458,-0.52917 0,-0.48507 -0.17639,-0.52917 -2.11667,-0.52917 h -2.11666 v 32.27917 c 0,21.34306 0.0896,32.27917 0.26458,32.27917 0.17002,0 0.28361,3.14435 0.31783,8.79739 0.0293,4.83857 0.0938,7.87466 0.14342,6.74688 0.12634,-2.87284 0.84325,-2.59781 0.86211,0.33073 0.004,0.65484 0.12307,1.36922 0.26414,1.5875 0.19175,0.2967 0.2575,0.15577 0.26053,-0.55839 0.007,-1.58782 0.32428,-3.4072 0.56835,-3.25636 0.1262,0.078 0.22945,0.95548 0.22945,1.94997 0,1.36318 0.0977,1.84564 0.39688,1.96046 0.21828,0.0838 0.41096,0.42392 0.42818,0.75591 0.0248,0.47766 0.0667,0.43798 0.20103,-0.19013 0.0964,-0.45091 0.34003,-0.79375 0.56401,-0.79375 0.21685,0 0.45381,-0.21539 0.52657,-0.47864 0.26305,-0.95172 0.66472,-0.42518 0.81542,1.06892 0.0847,0.83951 0.17397,1.31802 0.19843,1.06336 0.0519,-0.54003 0.33782,-0.59301 0.78532,-0.14552 0.24694,0.24694 0.3175,-2.54588 0.3175,-12.56771 0,-7.08686 0.10159,-12.88521 0.22576,-12.88521 0.41518,0 0.56799,3.96556 0.56799,14.73991 0,7.11996 0.0891,10.63624 0.26682,10.52642 0.14675,-0.0907 0.37733,0.11063 0.51239,0.44741 0.17905,0.44643 0.25012,-0.0448 0.26235,-1.81345 0.009,-1.33417 0.0888,-2.6134 0.17678,-2.84275 0.38483,-1.00283 0.63708,0.0984 0.68011,2.96902 l 0.0464,3.09324 0.18234,-3.175 c 0.10029,-1.74625 0.19849,-3.97868 0.21822,-4.96094 z m 6.89645,5.17499 c 0.0102,-1.04644 0.13766,-1.9762 0.28318,-2.06614 0.14552,-0.0899 0.26458,-0.81134 0.26458,-1.60311 0,-0.79178 0.11906,-1.4396 0.26458,-1.4396 0.16276,0 0.26459,1.31772 0.26459,3.42397 0,1.99725 0.11025,3.49211 0.26458,3.58749 0.16445,0.10164 0.26458,-0.40147 0.26458,-1.32935 0,-1.07958 0.0916,-1.46086 0.33073,-1.37723 0.1819,0.0636 0.29575,0.31165 0.25299,0.55122 -0.0446,0.24985 0.0964,0.43557 0.33073,0.43557 0.29224,0 0.40847,0.26977 0.40847,0.94809 0,0.64087 0.10717,0.91237 0.33073,0.83787 0.25949,-0.0865 0.34536,-4.08059 0.39867,-18.54288 0.0595,-16.14056 0.11708,-18.43266 0.46302,-18.43266 0.34631,0 0.39508,2.11223 0.39508,17.11094 0,15.28669 0.045,17.16062 0.42174,17.57694 0.23195,0.25631 0.58914,0.40177 0.79375,0.32326 0.28305,-0.10862 0.37201,0.12162 0.37201,0.96278 0,0.9827 0.0441,1.06144 0.39687,0.70867 0.34667,-0.34667 0.39688,-3.29469 0.39688,-23.30223 0,-20.96979 0.1671,-26.54894 0.62066,-20.72255 0.0935,1.20055 0.17063,11.68507 0.17151,23.29895 0.001,14.00965 0.0906,21.0611 0.26616,20.95261 0.14552,-0.0899 0.26459,-0.98993 0.26459,-1.99999 0,-1.04792 0.1136,-1.83647 0.26458,-1.83647 0.15119,0 0.26458,0.79375 0.26458,1.85209 0,1.05833 0.1134,1.85208 0.26459,1.85208 0.14552,0 0.26837,-0.14883 0.27299,-0.33073 0.005,-0.18735 0.17564,-0.1097 0.39415,0.17912 0.45105,0.59621 0.4465,0.59979 0.98532,-0.77443 0.27525,-0.70199 0.55688,-1.03216 0.83646,-0.98059 0.27348,0.0504 0.42149,-0.11216 0.42149,-0.46302 0,-0.29742 0.11907,-0.54077 0.26459,-0.54077 0.16919,0 0.26458,-2.33715 0.26458,-6.48229 0,-5.58565 0.0549,-6.48229 0.39687,-6.48229 0.34227,0 0.39688,0.91624 0.39688,6.65868 0,3.66227 0.0893,6.56949 0.19844,6.46048 0.10914,-0.10901 0.25797,-11.01321 0.33073,-24.23155 0.0728,-13.21834 0.22806,-24.12906 0.34511,-24.24604 0.11706,-0.11699 0.32359,-0.0375 0.45897,0.17651 0.14708,0.23256 0.24941,10.23989 0.25425,24.86317 0.004,13.46068 0.1051,24.62682 0.22364,24.81365 0.11882,0.18726 0.41382,0.2636 0.65741,0.17013 0.24877,-0.0955 0.44187,-0.0416 0.44187,0.12333 0,0.16109 0.11906,0.29289 0.26458,0.29289 0.14552,0 0.26458,-0.66187 0.26458,-1.47082 0,-1.55637 0.51389,-1.83735 0.54777,-0.2995 0.0102,0.46435 0.12092,1.0824 0.24598,1.37345 0.17611,0.40982 0.23159,0.27557 0.24599,-0.59532 0.0102,-0.61846 0.13198,-1.12448 0.27055,-1.12448 0.13858,0 0.28741,-0.71558 0.33073,-1.59019 0.12348,-2.49267 0.59762,-2.03456 0.68532,0.66216 0.0894,2.74951 0.58408,3.80434 0.58408,1.24553 0,-1.59559 0.37623,-2.24334 0.60703,-1.0451 0.0631,0.32742 0.13087,-1.45852 0.15069,-3.96875 0.0198,-2.51023 0.13813,-4.56406 0.26292,-4.56406 0.27923,0 0.55317,2.49184 0.60783,5.52891 l 0.041,2.2763 0.19736,-2.24896 c 0.10855,-1.23693 0.20917,-19.12607 0.22362,-39.75365 l 0.0263,-37.50469 h -2.24896 c -1.78175,0 -2.24896,0.0792 -2.24896,0.38126 0,0.63392 -0.55437,0.77016 -0.71013,0.17453 -0.13779,-0.52691 -0.31554,-0.55579 -3.42177,-0.55579 -3.10004,0 -3.27643,0.0285 -3.27643,0.52917 0,0.68535 -0.42661,0.68535 -0.60583,0 -0.12914,-0.49383 -0.3609,-0.52917 -3.47044,-0.52917 -3.15568,0 -3.33207,0.028 -3.33207,0.52917 0,0.29104 -0.11906,0.52917 -0.26458,0.52917 -0.14552,0 -0.26458,-0.23813 -0.26458,-0.52917 0,-0.48766 -0.17639,-0.52917 -2.24896,-0.52917 h -2.24896 l 0.0643,39.48907 0.0643,39.48906 0.13416,-27.25208 c 0.0881,-17.90223 0.22493,-27.25209 0.39874,-27.25209 0.17379,0 0.28779,7.74005 0.33221,22.55573 0.0442,14.7305 0.15891,22.55573 0.33073,22.55573 0.16752,0 0.2631,2.44549 0.2631,6.73126 0,4.2021 0.0994,6.7927 0.26458,6.89478 0.14552,0.0899 0.27296,0.54345 0.28318,1.00781 0.0378,1.71687 0.4728,-0.15459 0.49198,-2.11667 z m 45.76021,0.24897 c 0.0444,-1.59459 0.51371,-1.39749 0.62999,0.26458 0.0534,0.76398 0.1192,-2.44368 0.14612,-7.12813 0.045,-7.83807 0.25924,-10.32293 0.67372,-7.81557 0.0897,0.54281 0.16446,4.40998 0.16606,8.5937 0.002,4.18372 0.0922,7.60298 0.20135,7.59836 0.10914,-0.005 0.40679,-0.16658 0.66146,-0.3599 0.43751,-0.33212 0.46302,-2.64161 0.46302,-41.92804 v -41.57657 h -1.05834 c -0.88194,0 -1.05833,0.0882 -1.05833,0.52917 0,0.29104 -0.11906,0.52917 -0.26458,0.52917 -0.14552,0 -0.26459,-0.23813 -0.26459,-0.52917 0,-0.47489 -0.17639,-0.52917 -1.71979,-0.52917 h -1.71979 V 152.358 c 0,19.95669 0.0484,22.74442 0.39687,22.87816 0.34775,0.13344 0.39688,2.53454 0.39688,19.39581 0,11.84817 0.0944,19.14691 0.24572,18.99215 0.13515,-0.13824 0.28397,-0.6589 0.33073,-1.15702 0.11505,-1.22569 0.74647,-1.41809 0.74647,-0.22746 0,0.49244 0.14882,1.21471 0.33073,1.60505 l 0.33072,0.70971 0.16714,-0.72311 c 0.0919,-0.39771 0.18122,-1.22912 0.19844,-1.84758 z M 39.119892,212.6725 c 0.09349,-0.89447 0.169984,-6.78807 0.169984,-13.09688 0,-10.43608 0.112948,-12.40767 0.633151,-11.05204 0.08833,0.23018 0.185518,5.37963 0.215974,11.44323 0.03046,6.06359 0.0943,9.86385 0.141872,8.44502 0.0687,-2.04891 0.166185,-2.57969 0.473792,-2.57969 0.307729,0 0.387295,0.43485 0.387295,2.11667 0,1.23472 0.110244,2.11667 0.264583,2.11667 0.166635,0 0.264583,-1.77124 0.264583,-4.78455 0,-3.70992 0.07428,-4.75984 0.33073,-4.67454 0.248372,0.0826 0.365349,1.81763 0.469762,6.96737 0.07647,3.77154 0.165764,5.87508 0.198437,4.67453 0.06159,-2.26331 0.588571,-3.14036 0.588571,-0.97955 0,0.92085 0.145799,1.34001 0.621216,1.78593 0.341667,0.32048 0.68277,0.76128 0.758004,0.97956 0.07523,0.21828 0.226121,-0.40535 0.335304,-1.38584 0.216043,-1.94012 0.627991,-2.15664 0.73148,-0.38448 0.03561,0.60987 0.12491,-15.44083 0.198438,-35.66822 0.08816,-24.25255 0.223787,-36.77709 0.398267,-36.77709 0.174783,0 0.28735,12.3699 0.331663,36.44636 0.04416,23.99015 0.157189,36.44635 0.330729,36.44635 0.145008,0 0.263649,0.29766 0.263649,0.66146 0,0.3638 0.119063,0.66146 0.264584,0.66146 0.145521,0 0.264583,-0.64782 0.264583,-1.4396 0,-1.43129 0.328004,-2.11209 0.633735,-1.31537 0.08801,0.22935 0.160015,0.83248 0.160015,1.3403 0,0.96138 0.594929,1.83336 1.056304,1.54821 0.146637,-0.0906 0.266613,-0.49112 0.266613,-0.88999 0,-0.70079 0.410461,-1.36022 0.846666,-1.36022 0.116417,0 0.211667,0.23813 0.211667,0.52917 0,0.29104 0.119062,0.52916 0.264583,0.52916 0.175268,0 0.264584,-14.06701 0.264584,-41.67187 v -41.67188 h -0.661459 c -0.485068,0 -0.661458,0.14112 -0.661458,0.52917 0,0.29104 -0.119063,0.52917 -0.264583,0.52917 -0.145521,0 -0.264584,-0.23813 -0.264584,-0.52917 0,-0.50203 -0.176389,-0.52917 -3.439583,-0.52917 -3.263194,0 -3.439583,0.0271 -3.439583,0.52917 0,0.29104 -0.119063,0.52917 -0.264584,0.52917 -0.145521,0 -0.264583,-0.23813 -0.264583,-0.52917 0,-0.50068 -0.17639,-0.52917 -3.276433,-0.52917 -3.053916,0 -3.285832,0.0359 -3.414813,0.52917 -0.179531,0.68653 -0.717087,0.68653 -0.717087,0 0,-0.38805 -0.17639,-0.52917 -0.661459,-0.52917 h -0.661458 v 28.92842 c 0,15.91063 0.07902,34.48863 0.175591,41.28444 0.162904,11.46336 0.210693,12.3965 0.661458,12.91624 0.479568,0.55294 0.485868,0.5393 0.485868,-1.05216 0,-0.88681 0.119062,-1.68596 0.264583,-1.77589 0.145521,-0.0899 0.266208,-1.1983 0.268195,-2.46302 0.0039,-2.48328 0.184496,-3.5686 0.555635,-3.33923 0.128977,0.0797 0.241364,1.59642 0.249751,3.37047 0.01439,3.04608 0.40589,6.67545 0.483492,4.4823 0.05014,-1.41711 0.55645,-0.97 0.599236,0.52916 0.0218,0.76399 0.08924,1.06164 0.149865,0.66146 0.06062,-0.40018 0.197565,-0.7276 0.304316,-0.7276 0.39393,0 0.829093,0.65269 0.829093,1.24354 0,1.28459 0.461894,0.53094 0.623766,-1.01777 z m 50.971621,0.56798 c 0.12618,0 0.26673,-0.38696 0.31233,-0.8599 0.11055,-1.14659 0.5721,-0.99384 0.77297,0.25582 0.12933,0.80462 0.16825,0.65371 0.19843,-0.76937 0.0414,-1.95343 0.24972,-2.29901 0.9164,-1.52039 0.30853,0.36034 0.44407,1.00224 0.44407,2.10311 0,0.87146 0.10741,1.58448 0.2387,1.58448 0.29805,0 0.81963,-1.45627 0.81963,-2.28844 0,-0.63516 0.36718,-0.83355 0.66146,-0.3574 0.55349,0.89557 0.66146,-0.3605 0.66146,-7.69496 0,-6.24994 0.071,-7.93592 0.33073,-7.84951 0.24955,0.083 0.36475,1.92303 0.46933,7.49653 0.0762,4.06257 0.16553,-6.75219 0.19843,-24.03279 0.0395,-20.7299 0.14986,-31.41927 0.32442,-31.41927 0.17496,0 0.26459,11.03078 0.26459,32.56315 0,30.87011 0.0241,32.55852 0.46302,32.47399 0.43771,-0.0843 0.47025,-2.19175 0.59531,-38.56038 0.1047,-30.44735 0.20127,-38.49421 0.46302,-38.58145 0.26349,-0.0878 0.33697,7.76171 0.36142,38.60713 0.0169,21.29454 0.0891,38.47923 0.16045,38.18819 0.27428,-1.11855 1.16483,-2.78893 1.407067,-2.63921 0.13963,0.0863 0.25461,0.77495 0.2555,1.53035 l 0.002,1.37344 0.39525,-0.75785 c 0.27964,-0.53611 0.39528,-1.59598 0.39528,-3.6224 0,-1.6243 0.11456,-2.93536 0.26459,-3.02808 0.17328,-0.1071 0.26458,-8.56281 0.26458,-24.50519 0,-16.1604 0.0889,-24.28671 0.26458,-24.17814 0.17365,0.10731 0.26459,9.61594 0.26459,27.66457 0,17.38492 0.0934,27.50105 0.25388,27.50105 0.13963,0 0.28846,-0.98226 0.33073,-2.18281 0.10572,-3.00303 0.57421,-2.66938 0.73971,0.52683 0.11783,2.27534 0.15732,2.44061 0.33255,1.3914 0.10936,-0.65485 0.22778,-1.81727 0.26317,-2.58316 0.098,-2.12111 0.57824,-1.80122 0.70035,0.46649 l 0.10686,1.98438 0.29002,-2.51355 c 0.31181,-2.70242 0.72191,-3.1776 0.97606,-1.13097 0.14234,1.1463 0.16071,1.08566 0.19843,-0.65496 0.0397,-1.83361 0.40625,-2.58117 0.6486,-1.32292 0.0631,0.32742 0.13087,-11.16211 0.15069,-25.53229 0.0237,-17.21799 0.12625,-26.12761 0.30061,-26.12761 0.31373,0 0.27461,-1.84291 0.56173,26.45834 0.12622,12.44203 0.32658,24.11015 0.44524,25.92916 0.14279,2.18881 0.23269,-3.64438 0.26585,-17.24844 0.0485,-19.88047 0.31145,-26.12046 0.66933,-15.88059 0.0952,2.723 0.17336,11.76724 0.17377,20.0983 5.3e-4,9.92138 0.092,15.1474 0.26533,15.1474 0.14552,0 0.28514,0.26789 0.31025,0.59531 0.0251,0.32743 0.11442,-0.17859 0.19844,-1.12448 0.10421,-1.17314 0.2579,-1.69876 0.4835,-1.65364 0.24673,0.0494 0.33073,-0.59765 0.33073,-2.54729 0,-2.00028 0.0931,-2.69072 0.39687,-2.94282 0.33821,-0.28068 0.40594,-0.19746 0.45818,0.56292 0.0337,0.49076 0.12301,-3.54289 0.19844,-8.96368 0.0877,-6.30298 0.23251,-9.85591 0.40172,-9.85582 0.17115,9e-5 0.28894,3.97094 0.33357,11.24503 0.0441,7.19235 0.16331,11.24489 0.33073,11.24489 0.14396,0 0.26174,0.2024 0.26174,0.44979 0,0.34984 0.0706,0.37923 0.3175,0.13229 0.47651,-0.47651 0.73541,-0.38529 0.7885,0.27781 0.0262,0.32743 0.11552,-0.29765 0.19844,-1.38906 0.14804,-1.94851 0.50953,-2.48836 0.852,-1.27239 0.12748,0.45263 0.1789,0.48691 0.19844,0.1323 0.0348,-0.631 0.55554,-0.29948 0.55554,0.35365 0,0.34041 0.12948,0.45556 0.39687,0.35296 0.33678,-0.12924 0.39688,0.25598 0.39688,2.54389 0,2.03936 0.0806,2.66933 0.33073,2.58595 0.26223,-0.0874 0.3446,-8.366 0.39773,-39.97413 l 0.067,-39.8639 h -0.79461 c -0.61821,0 -0.7946,0.11747 -0.7946,0.52917 0,0.29104 -0.11907,0.52917 -0.26459,0.52917 -0.14552,0 -0.26458,-0.23813 -0.26458,-0.52917 0,-0.50203 -0.17639,-0.52917 -3.43958,-0.52917 -3.2632,0 -3.43959,0.0271 -3.43959,0.52917 0,0.29104 -0.11906,0.52917 -0.26458,0.52917 -0.14552,0 -0.26458,-0.23813 -0.26458,-0.52917 0,-0.50203 -0.17639,-0.52917 -3.43959,-0.52917 -3.26319,0 -3.43958,0.0271 -3.43958,0.52917 0,0.29104 -0.11906,0.52917 -0.26458,0.52917 -0.14552,0 -0.26459,-0.23813 -0.26459,-0.52917 0,-0.50203 -0.17639,-0.52917 -3.439577,-0.52917 h -3.43958 v 1.19063 c 0,0.65484 -0.11907,1.19062 -0.26459,1.19062 -0.14552,0 -0.26458,-0.53578 -0.26458,-1.19062 v -1.19063 h -3.43958 c -3.2632,0 -3.43959,0.0271 -3.43959,0.52917 0,0.29104 -0.11906,0.52917 -0.26458,0.52917 -0.145521,0 -0.264583,-0.23813 -0.264583,-0.52917 0,-0.50068 -0.17639,-0.52917 -3.276434,-0.52917 -3.053916,0 -3.285831,0.0359 -3.414813,0.52917 -0.17953,0.68653 -0.717087,0.68653 -0.717087,0 0,-0.50094 -0.176389,-0.52917 -3.307291,-0.52917 -3.130902,0 -3.307292,0.0282 -3.307292,0.52917 0,0.29104 -0.119063,0.52917 -0.264583,0.52917 -0.145521,0 -0.264584,-0.23813 -0.264584,-0.52917 0,-0.50203 -0.176389,-0.52917 -3.439583,-0.52917 -3.263194,0 -3.439583,0.0271 -3.439583,0.52917 0,0.29104 -0.119063,0.52917 -0.264584,0.52917 -0.145521,0 -0.264583,-0.23813 -0.264583,-0.52917 0,-0.50203 -0.17639,-0.52917 -3.439583,-0.52917 h -3.439584 v 1.19063 c 0,0.65484 -0.119062,1.19062 -0.264583,1.19062 -0.145521,0 -0.264583,-0.53578 -0.264583,-1.19062 v -1.19063 h -2.38125 -2.38125 v 41.80417 41.80417 l 0.595312,-0.004 c 1.477553,-0.0101 1.380247,1.83668 1.48403,-28.16421 0.05262,-15.21235 0.182046,-27.65883 0.287602,-27.65883 0.190095,0 0.53912,29.61111 0.547319,46.43438 0.0042,8.49776 0.142751,10.10778 0.785853,9.12812 0.143293,-0.21828 0.26398,-0.75406 0.268194,-1.19062 0.01077,-1.11519 0.282358,-2.00489 0.559687,-1.8335 0.128976,0.0797 0.234503,0.62118 0.234503,1.20327 0,0.58208 0.108685,0.99116 0.241522,0.90906 0.132837,-0.0821 0.486254,0.17877 0.785368,0.5797 l 0.543846,0.72897 0.0084,-24.92137 c 0.0055,-16.31973 0.0997,-24.9778 0.272965,-25.08488 0.175657,-0.10856 0.264584,8.00978 0.264584,24.15428 0,16.97409 0.08772,24.56942 0.290467,25.15103 0.423849,1.21587 1.032444,1.08318 1.032444,-0.2251 0,-0.58209 0.119062,-1.05834 0.264583,-1.05834 0.145521,0 0.264584,0.53578 0.264584,1.19063 0,0.65484 0.113466,1.19062 0.252148,1.19062 0.350639,0 0.802939,-1.75616 0.804709,-3.12447 7.93e-4,-0.69236 0.105381,-1.07588 0.266059,-0.97657 0.145521,0.0899 0.264584,0.86384 0.264584,1.71979 0,0.85595 0.119062,1.62986 0.264583,1.71979 0.145521,0.0899 0.264583,0.0374 0.264583,-0.11667 0,-0.39238 0.721035,-0.35113 0.883105,0.0505 0.0734,0.1819 0.142852,0.003 0.15434,-0.39688 0.01149,-0.40018 0.139951,-0.7276 0.285472,-0.7276 0.16293,0 0.264583,-1.33235 0.264583,-3.46789 0,-2.95801 0.05776,-3.44573 0.392835,-3.31715 0.340768,0.13077 0.402135,-0.85322 0.463021,-7.42423 0.0535,-5.77406 0.148815,-7.60116 0.400915,-7.68511 0.260215,-0.0867 0.340622,2.05229 0.377132,10.03223 l 0.04641,10.14236 0.254334,-6.28386 c 0.139885,-3.45612 0.345448,-6.28385 0.456805,-6.28385 0.111358,0 0.243914,1.58923 0.294574,3.53162 0.05909,2.26558 0.207957,3.67107 0.415274,3.92061 0.213146,0.25655 0.348266,1.68901 0.396875,4.20744 0.07205,3.73288 0.08705,3.82035 0.669018,3.903 0.400415,0.0569 0.595312,-0.0514 0.595312,-0.33073 0,-0.2284 0.119063,-0.41527 0.264584,-0.41527 0.145521,0 0.264583,-0.28792 0.264583,-0.63982 0,-0.81006 0.251695,-1.47685 0.557474,-1.47685 0.129951,0 0.236276,0.3175 0.236276,0.70556 0,0.38805 0.07834,0.62721 0.174093,0.53146 0.09575,-0.0957 0.329679,-0.045 0.51984,0.11285 0.256382,0.21278 0.543947,0.14582 1.112544,-0.25906 0.421738,-0.30031 0.842653,-0.47015 0.935368,-0.37744 0.09272,0.0927 0.177972,0.77381 0.189461,1.51354 0.01148,0.73973 0.08045,1.16637 0.153254,0.94809 0.0728,-0.21828 0.188159,-0.57028 0.25635,-0.78222 0.09141,-0.28412 0.291925,-0.17986 0.763272,0.39687 l 0.639287,0.78222 0.0095,-17.24844 c 0.0087,-15.79332 0.184702,-20.20972 0.634034,-15.91074 0.09308,0.89051 0.16923,8.15007 0.16923,16.13237 0,11.32033 0.07138,14.49872 0.324448,14.44713 0.178445,-0.0364 0.365321,0.20174 0.415277,0.52916 0.04996,0.32742 0.20161,0.6102 0.33701,0.62839 0.135401,0.0182 0.389641,0.048 0.564983,0.0661 0.17534,0.0182 0.385771,0.31677 0.467625,0.6635 0.124822,0.52876 0.199588,0.56926 0.463611,0.25114 0.19046,-0.2295 0.387363,-1.91533 0.498549,-4.26846 0.100657,-2.13908 0.271615,-3.8892 0.379494,-3.8892 0.386029,0 0.517808,0.879 0.548645,3.65966 0.0346,3.11944 0.249862,4.61157 0.587901,4.07508 0.11611,-0.18427 0.308454,-0.27488 0.427432,-0.20135 0.352782,0.21803 0.755962,-0.45964 0.849977,-1.42866 0.131728,-1.35778 0.70073,-1.33637 0.800388,0.0301 0.04577,0.62765 0.18284,-0.43639 0.304594,-2.36455 0.121753,-1.92815 0.329639,-3.50573 0.46197,-3.50573 0.132332,0 0.261403,1.16086 0.286827,2.57969 0.02543,1.41883 0.0929,2.05113 0.149953,1.40511 0.05705,-0.64603 0.333433,-1.49718 0.614185,-1.89146 0.496662,-0.6975 0.512273,-1.59532 0.577651,-33.22125 0.04445,-21.50377 0.156737,-32.48199 0.331777,-32.43824 0.174271,0.0436 0.287497,11.85206 0.331714,34.59427 0.04556,23.43687 0.15454,34.52813 0.339254,34.52813 0.149669,0 0.379804,0.2679 0.511414,0.59532 0.18333,0.45611 0.24321,0.48704 0.25605,0.13229 0.009,-0.25466 0.13584,-0.46302 0.28136,-0.46302 0.14552,0 0.26458,-0.47625 0.26458,-1.05834 0,-0.58208 0.11907,-1.05833 0.26459,-1.05833 0.14689,0 0.26989,0.73556 0.27651,1.65365 0.007,0.9095 0.17549,2.01083 0.37539,2.44739 0.1999,0.43657 0.37312,0.64493 0.38494,0.46302 0.033,-0.50794 0.54587,-0.3923 0.58669,0.1323 0.0239,0.3073 0.0746,0.26281 0.15069,-0.1323 0.0631,-0.32742 0.2179,-0.59531 0.34408,-0.59531 z m 96.660727,-9.70052 c 0.0963,-5.04425 0.17513,-23.73706 0.17513,-41.53959 v -32.36823 h -0.66488 -0.66488 l 0.13622,19.24844 c 0.0749,10.58664 0.19686,29.27945 0.27097,41.53958 0.0741,12.26014 0.2332,22.29115 0.35352,22.29115 0.12033,0 0.29759,-4.12711 0.39392,-9.17135 z m 1.51645,7.58385 c 0.15079,0 0.24618,-15.78883 0.24618,-40.74583 0,-36.04213 -0.0458,-40.74584 -0.39687,-40.74584 -0.35124,0 -0.39273,4.75384 -0.36085,41.34115 0.0198,22.73763 0.0876,41.07326 0.1507,40.74583 0.0631,-0.32742 0.22544,-0.59531 0.36084,-0.59531 z m 33.87059,-76.31906 c 0.14671,-0.15222 0.24226,7.02223 0.24226,18.1901 v 18.44146 h 1.05833 1.05834 v -4.10104 -4.10104 h -0.67708 c -0.384,0 -0.60629,-0.11452 -0.51355,-0.26459 0.0899,-0.14552 0.39462,-0.26458 0.67708,-0.26458 0.48625,0 0.51355,-0.21795 0.51355,-4.10104 v -4.10104 h -0.66146 c -0.3638,0 -0.66146,-0.11907 -0.66146,-0.26459 0,-0.14552 0.29766,-0.26458 0.66146,-0.26458 h 0.66146 v -4.10104 c 0,-3.88309 -0.0273,-4.10104 -0.51355,-4.10104 -0.28246,0 -0.58714,-0.11907 -0.67708,-0.26459 -0.0927,-0.15006 0.12955,-0.26458 0.51355,-0.26458 h 0.67708 v -4.08264 c 0,-3.90504 -0.0235,-4.08632 -0.53965,-4.16719 -0.29681,-0.0465 -0.53965,-0.20361 -0.53965,-0.34913 0,-0.14552 0.24284,-0.30263 0.53965,-0.34913 0.50966,-0.0798 0.53965,-0.26728 0.53965,-3.37344 v -3.28889 h -1.5875 -1.5875 l 0.0463,38.9599 0.0463,38.9599 0.24059,-36.24792 c 0.14082,-21.21689 0.34104,-36.35215 0.48284,-36.49927 z m -226.8836294,81.9887 c -0.5747626,-0.57476 -0.5232334,-1.62476 0.095999,-1.95616 0.5871858,-0.31426 2.3932517,-0.36007 2.8148187,-0.0714 0.548508,0.37558 0.658131,1.18893 0.245186,1.81916 -0.327288,0.49951 -0.641797,0.62418 -1.574603,0.62418 -0.706883,0 -1.3292586,-0.16363 -1.5814007,-0.41577 z m 2.4545297,-0.34758 c 0.547473,-0.34695 0.249376,-1.20931 -0.452522,-1.30909 -0.8907371,-0.12663 -1.8886147,0.1742 -1.8886147,0.56936 0,0.83409 1.4628697,1.29631 2.3411367,0.73973 z M -12.993366,194.87429 c -0.229228,-0.59736 -0.0027,-1.82353 0.358764,-1.94223 0.223256,-0.0733 0.330729,0.19949 0.330729,0.83949 0,1.04248 0.628274,1.34487 0.870412,0.41893 0.07611,-0.29104 0.26859,-0.52917 0.427734,-0.52917 0.159145,0 0.289354,0.23813 0.289354,0.52917 0,0.41157 0.176389,0.52916 0.7937499,0.52916 0.4365625,0 0.79375,0.11907 0.79375,0.26459 0,0.43959 -3.6939419,0.3345 -3.8644929,-0.10994 z m 0.336715,-2.4477 c -0.459161,-0.45916 -0.02976,-0.61736 1.675694,-0.61736 1.4699081,0 1.8520839,0.0819 1.8520839,0.39687 0,0.311 -0.3625771,0.39688 -1.6756949,0.39688 -0.921632,0 -1.755069,-0.0794 -1.852083,-0.17639 z m 1.065526,-1.31572 c -0.339941,-0.33995 0.134932,-0.62456 1.042059,-0.62456 0.7425878,0 0.9121574,-0.0932 0.8420804,-0.46302 -0.061323,-0.32359 -0.3858614,-0.48775 -1.0777344,-0.54514 -1.464846,-0.1215 -1.201743,-0.57934 0.33293,-0.57934 0.9656299,0 1.3229169,0.10134 1.3229169,0.37524 0,0.20638 0.066379,0.54821 0.1475079,0.75963 0.2247651,0.58573 -0.6114077,1.24638 -1.5775178,1.24638 -0.474675,0 -0.939184,-0.0761 -1.032242,-0.16919 z m -0.183582,-2.97341 c 0,-0.1277 0.181598,-0.3829 0.40355,-0.56711 0.360202,-0.29894 0.355639,-0.38785 -0.04247,-0.82776 -0.588061,-0.6498 -0.287134,-0.91773 0.450482,-0.40109 0.5234,0.36661 0.643496,0.36626 1.2077349,-0.003 0.5533107,-0.36254 0.6265421,-0.36389 0.6265421,-0.0115 0,0.21945 -0.1948005,0.47375 -0.4328898,0.56512 -0.4007977,0.1538 -0.4007977,0.20158 0,0.64445 0.6512311,0.7196 0.5206312,0.9519 -0.2509422,0.44634 -0.62374,-0.40869 -0.724385,-0.41136 -1.145313,-0.0304 -0.515099,0.46616 -0.816689,0.53464 -0.816689,0.18545 z m 0.415774,-5.47526 c -0.228675,-0.22867 -0.415774,-0.64539 -0.415774,-0.92604 0,-0.33388 -0.182921,-0.51027 -0.529166,-0.51027 -0.291042,0 -0.529167,-0.11906 -0.529167,-0.26458 0,-0.15076 0.783464,-0.26458 1.821225,-0.26458 1.6607305,0 1.8348068,0.0519 1.9753508,0.58938 0.3539014,1.35332 -1.3409938,2.35757 -2.3224688,1.37609 z m 1.6531494,-0.8437 c 0.068317,-0.47884 -0.042972,-0.59261 -0.5796974,-0.59261 -0.816577,0 -1.115724,0.41968 -0.676439,0.94898 0.45798,0.55184 1.1547661,0.35416 1.2561364,-0.35637 z m -1.4808854,-2.06282 c -0.673378,-0.47165 -0.773707,-1.4859 -0.194532,-1.96657 0.613284,-0.50898 1.193995,-0.12074 1.193995,0.79826 0,0.50789 0.106108,0.75209 0.2800732,0.64458 0.1671193,-0.10329 0.2071402,-0.50974 0.099233,-1.00781 l -0.1808403,-0.8347 0.562225,0.50402 c 0.7014078,0.62881 0.7097334,1.06826 0.033058,1.74493 -0.6368319,0.63684 -1.0160479,0.66164 -1.7932119,0.11729 z m 0.12187,-1.22523 c -0.08446,-0.21106 -0.147157,-0.14837 -0.159853,0.15985 -0.01149,0.27892 0.05105,0.43519 0.138965,0.34727 0.08792,-0.0879 0.09732,-0.31612 0.02089,-0.50712 z m -0.709908,-2.45462 c 0,-1.04552 0.531212,-1.46452 1.8567384,-1.46452 1.1799372,0 0.8738291,0.63966 -0.3558364,0.74358 -0.534454,0.0452 -0.971735,0.17018 -0.971735,0.27781 0,0.42473 0.672384,0.83069 1.3758336,0.83069 0.4074583,0 0.7408333,0.11907 0.7408333,0.26459 0,0.14552 -0.5953125,0.26458 -1.3229169,0.26458 h -1.322917 z m 0.103065,-2.37132 c -0.0797,-0.2077 -0.105731,-0.65418 -0.05784,-0.99219 0.07366,-0.51992 0.259063,-0.62421 1.204052,-0.67731 1.3070093,-0.0734 1.9020893,0.57338 1.3965589,1.51797 -0.425945,0.79588 -0.8018709,0.63592 -0.6217708,-0.26459 0.091722,-0.45861 0.047037,-0.79375 -0.1058334,-0.79375 -0.1455207,0 -0.3360207,0.35719 -0.4233337,0.79375 -0.11463,0.57316 -0.309962,0.79375 -0.702835,0.79375 -0.299247,0 -0.609295,-0.16993 -0.688996,-0.37763 z m 0.955269,-0.97651 c 0,-0.29104 -0.119063,-0.45558 -0.264584,-0.36565 -0.14552,0.0899 -0.264583,0.40165 -0.264583,0.69269 0,0.29104 0.119063,0.45558 0.264583,0.36565 0.145521,-0.0899 0.264584,-0.40165 0.264584,-0.69269 z m 8.3385323,0.30254 c -0.07979,-0.12911 -0.02408,-0.30953 0.123818,-0.40094 0.147895,-0.0914 0.2689,-0.45682 0.2689,-0.81203 0,-0.51251 -0.136557,-0.64584 -0.661459,-0.64584 -0.670204,0 -0.7604239,0.17185 -0.669405,1.27512 0.04487,0.54388 -0.049589,0.60406 -0.8306084,0.52917 -0.8094062,-0.0776 -0.8879298,-0.16537 -0.9633537,-1.07669 -0.047536,-0.57435 0.03603,-0.99219 0.1984375,-0.99219 0.1543052,0 0.2805549,0.29766 0.2805549,0.66146 0,0.3638 0.1190625,0.66146 0.2645833,0.66146 0.1455208,0 0.2645833,-0.21967 0.2645833,-0.48816 0,-0.63812 0.8174181,-1.36392 1.5360881,-1.36392 0.761286,0 1.445878,1.07801 1.230231,1.93721 -0.175342,0.69862 -0.79141,1.12141 -1.04237,0.71535 z m -10.5433933,-1.77062 c -0.304439,-0.30444 -0.192681,-0.61736 0.220486,-0.61736 0.218281,0 0.396875,0.17859 0.396875,0.39688 0,0.41316 -0.312923,0.52492 -0.617361,0.22048 z m 1.342559,0.0196 c -0.37989,-0.37988 0.143553,-0.63699 1.29684,-0.63699 0.8392626,0 1.1645517,0.0988 1.0883012,0.33073 -0.1167961,0.35517 -2.0836772,0.60774 -2.3851412,0.30627 z m -0.196032,-1.16616 c 0,-0.14552 -0.238125,-0.26458 -0.529166,-0.26458 -0.291042,0 -0.529167,-0.11906 -0.529167,-0.26458 0,-0.14552 0.228203,-0.26459 0.507118,-0.26459 0.278915,0 0.576571,-0.14882 0.661459,-0.33073 0.123472,-0.26458 0.185208,-0.26458 0.30868,0 0.230944,0.49488 1.6104149,0.41077 1.8104012,-0.11038 0.1253726,-0.32672 0.2464575,-0.36394 0.4668854,-0.14351 0.4775872,0.47759 -0.2497852,1.11379 -1.2733986,1.11379 -0.491505,0 -0.893645,0.11906 -0.893645,0.26458 0,0.14552 -0.119062,0.26459 -0.264583,0.26459 -0.145521,0 -0.264584,-0.11907 -0.264584,-0.26459 z m 0.132388,-1.85192 c -0.08922,-0.14437 0.142144,-0.40117 0.514151,-0.57067 0.372008,-0.1695 0.676378,-0.38902 0.676378,-0.48782 0,-0.0988 -0.30437,-0.31833 -0.676378,-0.48783 -0.372007,-0.16949 -0.608934,-0.4173 -0.526502,-0.55068 0.216901,-0.35095 3.3062661,1.04848 3.6236069,1.64144 0.3682341,0.68805 0.067486,0.8988 -0.5217089,0.36559 -0.6007436,-0.54367 -1.1721965,-0.55516 -2.161725,-0.0435 -0.480371,0.24841 -0.826034,0.29811 -0.927822,0.13342 z m -0.992283,-5.70774 c -0.400183,-0.21711 -0.727605,-0.49015 -0.727605,-0.60677 0,-0.5014 0.380932,-0.5117 0.997154,-0.027 0.868459,0.68313 2.434114,0.67903 3.308377,-0.009 0.7847161,-0.61727 0.9861362,-0.65595 0.9861362,-0.18935 0,1.05074 -3.1142652,1.61828 -4.5640622,0.83175 z m 1.918229,-1.66989 c 0,-0.12855 0.250669,-0.29928 0.557042,-0.3794 1.0797821,-0.28237 0.369978,-0.83983 -1.173258,-0.92144 -1.98949,-0.10521 -1.933657,-0.58211 0.06815,-0.58211 1.4913038,0 2.4001491,0.40076 2.4001491,1.05834 0,0.12473 -0.1870982,0.41388 -0.4157739,0.64256 -0.4444947,0.44449 -1.4363092,0.5702 -1.4363092,0.18205 z m 2.2266322,-2.50718 c -0.2370963,-0.61786 -0.8703628,-0.72952 -1.7010862,-0.29993 -0.828279,0.42831 -1.58388,0.5182 -1.58388,0.18842 0,-0.11362 0.386954,-0.35719 0.859896,-0.54128 l 0.859896,-0.3347 -0.859896,-0.37199 c -0.982114,-0.42486 -1.200826,-1.06796 -0.264583,-0.77797 2.0485762,0.6345 3.7714201,1.95532 3.0954301,2.37311 -0.1401932,0.0866 -0.3227928,-0.0194 -0.4057769,-0.23566 z m -4.7570662,-2.84268 c -0.199105,-0.32216 0.558507,-0.95837 1.421936,-1.19409 0.98741,-0.26956 2.7305361,0.08 3.3154385,0.66494 0.77064,0.77063 0.3939263,0.94709 -0.6557467,0.30715 -1.1153428,-0.67998 -1.9760178,-0.68673 -3.0629458,-0.024 -0.539067,0.32868 -0.911928,0.41872 -1.018682,0.24599 z"
       id="path945"
       inkscape:connector-curvature="0" />
  </g>
</svg>
